<svg width="30" height="46" viewBox="0 0 30 46" fill="none" xmlns="http://www.w3.org/2000/svg">
<g clip-path="url(#clip0_12895_3667)">
<path d="M26.4006 21.0741C26.4006 21.0741 26.4036 36.5353 26.4006 44.1168C26.4006 44.9841 25.98 45.4077 25.1224 45.4085C17.4663 45.4107 9.81032 45.4107 2.1543 45.4085C1.28101 45.4085 0.870095 44.999 0.8604 44.1339C0.851451 43.3762 0.857417 42.6178 0.857417 41.8594C0.857417 28.7719 0.857417 15.6845 0.857417 2.59708C0.857417 2.33606 0.851451 2.0743 0.871586 1.81477C0.917824 1.22785 1.32352 0.836326 1.91417 0.796055C2.03796 0.787852 2.16251 0.789343 2.28705 0.789343C9.80659 0.788597 17.3254 0.788597 24.8449 0.788597C25.0187 0.788597 25.1932 0.784869 25.367 0.797547C25.9285 0.839309 26.3708 1.23979 26.3857 1.79911C26.4133 2.86704 26.3961 3.93647 26.3999 5.00515C26.4006 5.25647 26.2716 5.36386 26.03 5.36386C25.5579 5.36312 25.0851 5.36014 24.613 5.36759C24.3192 5.37207 24.2215 5.21919 24.2252 4.94847C24.2312 4.48908 24.2267 4.02895 24.2252 3.56881C24.2222 2.98264 24.211 2.97071 23.6092 2.97071C19.0108 2.97071 14.4117 2.97071 9.81331 2.97071C7.76245 2.97071 5.7116 2.97071 3.66149 2.97071C3.07756 2.97071 3.04325 3.00426 3.04325 3.57925C3.04251 10.7751 3.04251 17.9718 3.04325 25.1676C3.04325 25.7605 3.08054 25.7948 3.68461 25.7948C10.3092 25.7948 16.9331 25.7948 23.5578 25.7948C24.2185 25.7948 24.2245 25.7866 24.2252 25.1274C24.2267 24.4562 24.2364 22.8163 24.2364 22.8163L26.4014 21.0727L26.4006 21.0741ZM13.6592 43.2301C16.9637 43.2301 20.2689 43.2301 23.5734 43.2301C24.2222 43.2301 24.2245 43.2286 24.2245 42.5992C24.2245 37.9404 24.2245 33.2816 24.2245 28.622C24.2245 28.0403 24.2058 28.0209 23.61 28.0209C16.9756 28.0209 10.3413 28.0209 3.70698 28.0217C3.05519 28.0217 3.04176 28.0351 3.04176 28.6944C3.04102 33.3286 3.04027 37.9627 3.04102 42.5969C3.04102 43.2055 3.06488 43.2293 3.67044 43.2293C7.00028 43.2301 10.3294 43.2293 13.6592 43.2293V43.2301Z" fill="white"/>
<path d="M21.109 8.87785C21.2872 8.68992 21.4289 8.5348 21.5766 8.38565C22.9704 6.97913 24.811 6.61967 26.6896 7.38632C28.3071 8.04707 29.3855 9.7228 29.3997 11.5857C29.4109 13.1213 28.8538 14.48 28.073 15.756C26.474 18.3685 24.1659 20.2276 21.5863 21.79C21.2843 21.9727 20.971 21.9817 20.6675 21.7975C18.0998 20.2418 15.8007 18.3923 14.192 15.803C13.4895 14.6724 12.9891 13.4613 12.8489 12.1227C12.5514 9.27311 14.7834 6.86951 17.6405 6.99778C18.9015 7.05446 19.9628 7.58469 20.8062 8.53405C20.8957 8.63473 20.9852 8.73616 21.1098 8.8771L21.109 8.87785ZM17.3779 8.47439C15.7746 8.47812 14.4553 9.66314 14.3196 11.2099C14.2405 12.1145 14.4299 12.9706 14.7946 13.785C16.0714 16.6346 18.3169 18.5758 20.8823 20.206C20.9964 20.2784 21.2358 20.2806 21.3499 20.209C23.5879 18.8085 25.5627 17.1268 26.9208 14.8209C27.5054 13.8282 27.9462 12.7745 27.9477 11.5902C27.9492 10.0308 26.832 8.7026 25.3539 8.50124C23.7073 8.27676 22.306 9.1687 21.8518 10.7296C21.7168 11.1935 21.4983 11.3948 21.1247 11.4C20.7466 11.4052 20.5102 11.1897 20.367 10.7109C19.9546 9.32456 18.8135 8.47141 17.3765 8.47439H17.3779Z" fill="white"/>
</g>
<defs>
<clipPath id="clip0_12895_3667">
<rect width="28.5427" height="44.6213" fill="white" transform="translate(0.857422 0.788574)"/>
</clipPath>
</defs>
</svg>
