<svg width="48" height="37" viewBox="0 0 48 37" fill="none" xmlns="http://www.w3.org/2000/svg">
<g clip-path="url(#clip0_12895_4098)">
<path d="M0.873047 22.7321C0.875121 15.1349 7.07044 8.94304 14.667 8.9458C22.3147 8.94926 28.4678 15.1411 28.4609 22.8275C28.4547 30.3605 22.2407 36.5392 14.6704 36.5399C7.06076 36.5399 0.870974 30.346 0.873047 22.7314V22.7321ZM14.6663 10.2039C7.68153 10.2496 2.0745 15.8773 2.13188 22.8199C2.18857 29.7065 7.7237 35.279 14.6718 35.2742C21.8799 35.2693 27.3376 29.3312 27.2021 22.4902C27.0707 15.8801 21.7001 10.2344 14.6663 10.2033V10.2039Z" fill="white"/>
<path d="M23.9043 2.28131C16.296 2.28131 8.687 2.28131 1.0787 2.27993C0.922466 2.27993 0.760704 2.27993 0.610695 2.24329C0.23187 2.14858 -0.0176847 1.79395 0.00098006 1.4089C0.0210274 1.01349 0.289938 0.696878 0.677059 0.626367C0.798034 0.604245 0.923848 0.600789 1.04759 0.600789C16.2898 0.600098 31.532 0.600098 46.7735 0.600098C46.8806 0.600098 46.9898 0.602172 47.0956 0.61738C47.5242 0.680978 47.8284 1.04114 47.818 1.46352C47.8069 1.89142 47.4661 2.24467 47.0285 2.27647C46.9048 2.28546 46.7797 2.28062 46.6559 2.28062C39.0725 2.28062 31.4884 2.28062 23.905 2.28062L23.9043 2.28131Z" fill="white"/>
<path d="M38.8438 13.1766C38.5804 13.7511 38.3495 14.2543 38.12 14.7583C36.6891 17.894 35.2623 21.031 33.8244 24.1639C33.4801 24.914 33.2617 25.6834 33.2796 26.5143C33.2824 26.6512 33.2554 26.7977 33.2057 26.9263C33.0647 27.2899 32.6817 27.4946 32.3015 27.4282C31.8943 27.357 31.6192 27.0355 31.604 26.6111C31.568 25.6163 31.7547 24.6624 32.1653 23.7588C33.9087 19.9277 35.6591 16.1001 37.4073 12.2717C37.6831 11.6682 38.1643 11.3572 38.8203 11.3502C39.4839 11.3426 39.9879 11.6351 40.2706 12.2503C40.9896 13.8161 41.7051 15.3846 42.4157 16.9538C42.6328 17.4329 42.4655 17.9182 42.0341 18.1159C41.5875 18.3205 41.1105 18.1297 40.8879 17.6437C40.2623 16.2805 39.6416 14.9159 39.0194 13.5513C38.9724 13.4476 38.9226 13.3453 38.8431 13.1766H38.8438Z" fill="white"/>
<path d="M30.8047 32.669C30.4798 32.6635 30.2275 32.5245 30.072 32.239C29.9116 31.9452 29.9303 31.648 30.1135 31.3673C30.1674 31.2851 30.2393 31.2138 30.3091 31.1433C32.7161 28.7218 35.1246 26.3023 37.5317 23.8807C39.9622 21.4356 42.3914 18.9898 44.8185 16.542C45.0542 16.3042 45.3169 16.1521 45.6591 16.2157C45.9771 16.2744 46.2039 16.4597 46.3013 16.7722C46.3995 17.0874 46.3483 17.3833 46.1133 17.6259C45.7386 18.013 45.3584 18.3939 44.9782 18.7762C43.0661 20.6966 41.1526 22.6149 39.2412 24.5367C36.6523 27.1394 34.0648 29.7435 31.4787 32.3496C31.2893 32.5404 31.0833 32.6759 30.8047 32.6704V32.669Z" fill="white"/>
<path d="M38.8485 33.6838C37.2267 33.6285 35.7626 33.1557 34.4671 32.1816C34.0198 31.845 33.9203 31.3486 34.2134 30.9463C34.501 30.553 35.0284 30.5039 35.4695 30.8302C37.7237 32.4989 40.7308 32.3227 42.7535 30.376C44.3795 28.8109 44.909 26.3002 43.9156 24.2705C43.6757 23.7797 43.4573 23.2779 43.2354 22.7787C43.0162 22.2865 43.1821 21.7971 43.6253 21.6015C44.0649 21.4079 44.5385 21.5939 44.7521 22.0695C45.1053 22.8548 45.5132 23.6242 45.7731 24.4399C47.016 28.345 44.5267 32.5584 40.4688 33.4557C39.9379 33.5732 39.3891 33.6098 38.8492 33.6838H38.8485Z" fill="white"/>
<path d="M14.9585 16.8438C14.9585 17.9623 14.9585 19.0815 14.9585 20.2C14.9585 20.283 14.9523 20.3687 14.971 20.4475C15.0042 20.5837 15.0871 20.6024 15.1839 20.5021C15.2295 20.4551 15.2627 20.3957 15.2994 20.3411C16.5755 18.4449 18.8685 17.596 21.0294 18.2202C23.2042 18.8479 24.6739 20.7655 24.7437 23.0654C24.7589 23.5604 24.5101 23.8231 24.0089 23.8238C22.1272 23.8265 20.2462 23.8251 18.3645 23.8251C18.2816 23.8251 18.1965 23.8141 18.1163 23.8293C18.0334 23.8452 17.9553 23.886 17.8758 23.9164C17.9138 23.9931 17.9359 24.0844 17.9919 24.1438C18.7855 24.9858 19.2473 25.9785 19.3987 27.1267C19.7637 29.887 17.6795 32.5374 14.9088 32.8195C14.7028 32.8402 14.4961 32.863 14.2894 32.8637C13.932 32.8658 13.6769 32.6384 13.6285 32.283C13.6119 32.1607 13.6147 32.0349 13.6147 31.9111C13.614 30.3779 13.6147 28.8446 13.6147 27.3113C13.6147 27.2449 13.6251 27.1765 13.6119 27.1129C13.5891 26.9982 13.5525 26.8862 13.5214 26.7735C13.4273 26.8329 13.323 26.8806 13.24 26.9525C11.5975 28.3828 9.73726 28.7602 7.73944 27.9017C5.73954 27.0424 4.70399 25.4372 4.59131 23.2555C4.56712 22.7813 4.84225 22.5221 5.3538 22.5214C7.35093 22.5193 9.34875 22.5221 11.3459 22.5165C11.4841 22.5165 11.6217 22.4626 11.76 22.4343C11.6632 22.3354 11.5802 22.2151 11.4675 22.1398C9.66329 20.9425 8.7978 18.7781 9.28031 16.6496C9.74832 14.5826 11.4689 13.0266 13.6126 12.7334C13.7764 12.7113 13.943 12.7051 14.1076 12.6899C14.6606 12.6387 14.953 12.8994 14.9551 13.4614C14.9592 14.5882 14.9565 15.7157 14.9565 16.8425L14.9585 16.8438ZM13.6382 17.8345C13.6382 16.7077 13.6396 15.5809 13.6375 14.4534C13.6375 14.1202 13.5815 14.0794 13.2753 14.1637C11.6424 14.6158 10.4797 16.1367 10.4735 17.8275C10.4673 19.4984 11.6224 21.0351 13.2345 21.5003C13.5877 21.602 13.6375 21.5653 13.6382 21.1893C13.6396 20.0708 13.6382 18.9523 13.6382 17.8331V17.8345ZM19.586 22.5048C20.7128 22.5048 21.8396 22.5055 22.9664 22.5048C23.3086 22.5048 23.3508 22.4474 23.2637 22.1267C22.8295 20.5284 21.2817 19.3525 19.6075 19.3498C17.9145 19.347 16.3681 20.5173 15.9312 22.1308C15.8455 22.4467 15.8842 22.5041 16.2056 22.5041C17.3324 22.5062 18.4592 22.5048 19.586 22.5048V22.5048ZM18.0928 27.7219C18.0928 26.0234 16.9508 24.4998 15.3429 24.0533C14.9993 23.9579 14.9503 23.9945 14.9503 24.3519C14.9503 26.5882 14.9503 28.8252 14.9503 31.0615C14.9503 31.4404 15.0014 31.4756 15.3761 31.3643C16.9778 30.8894 18.0922 29.3948 18.0928 27.7212V27.7219ZM9.74417 23.859C8.60908 23.859 7.47329 23.8583 6.3382 23.859C6.0202 23.859 5.98495 23.9074 6.06514 24.206C6.49719 25.8216 8.02632 26.9926 9.70546 26.9961C11.4316 26.9995 12.9621 25.8513 13.4073 24.2206C13.4937 23.9033 13.4619 23.8597 13.1259 23.859C11.9991 23.8576 10.8717 23.859 9.74486 23.859H9.74417Z" fill="white"/>
</g>
<defs>
<clipPath id="clip0_12895_4098">
<rect width="47.8177" height="35.94" fill="white" transform="translate(0 0.600098)"/>
</clipPath>
</defs>
</svg>
