<svg width="20" height="20" viewBox="0 0 20 20" fill="none" xmlns="http://www.w3.org/2000/svg">
<path d="M0.742188 13.1245H4.37302" stroke="white" stroke-width="1.25" stroke-linecap="round" stroke-linejoin="round"/>
<path d="M17.4088 2.29834C15.2988 4.36167 15.6263 9.37501 15.6263 9.37501V18.125C15.6263 18.125 14.3763 19.375 10.0013 19.375C5.62625 19.375 4.37625 18.125 4.37625 18.125V9.37501C4.37625 9.37501 4.70375 4.36167 2.59375 2.29834" stroke="white" stroke-width="1.25" stroke-linecap="round" stroke-linejoin="round"/>
<path d="M15.625 15.625H19.375L18.8992 5.625C18.8079 3.71325 17.6334 2.02132 15.8742 1.2675L14.375 0.625C14.375 0.625 13.125 7.5 10 10C6.875 7.5 5.625 0.625 5.625 0.625L4.125 1.2675C2.36611 2.02157 1.19192 3.71345 1.10083 5.625L0.625 15.625H4.375" stroke="white" stroke-width="1.25" stroke-linecap="round" stroke-linejoin="round"/>
<path d="M19.2558 13.1245H15.625" stroke="white" stroke-width="1.25" stroke-linecap="round" stroke-linejoin="round"/>
<path d="M10 9.99951V19.3745" stroke="white" stroke-width="1.25" stroke-linecap="round" stroke-linejoin="round"/>
<path d="M5.625 0.625C6.94559 1.42478 8.45622 1.85639 10 1.875C11.5438 1.85639 13.0544 1.42478 14.375 0.625" stroke="white" stroke-width="1.25" stroke-linecap="round" stroke-linejoin="round"/>
<path d="M9.375 4.375H10.625" stroke="white" stroke-width="1.25" stroke-linecap="round" stroke-linejoin="round"/>
</svg>
