<svg width="22" height="22" viewBox="0 0 22 22" fill="none" xmlns="http://www.w3.org/2000/svg">
<path d="M19.864 18.1592C19.864 19.6646 15.8958 20.8865 11.0004 20.8865C6.1049 20.8865 2.13672 19.6646 2.13672 18.1592" stroke="white" stroke-width="1.25" stroke-linecap="round" stroke-linejoin="round"/>
<path d="M0.773438 18.1592H21.228" stroke="white" stroke-width="1.25" stroke-linecap="round" stroke-linejoin="round"/>
<path d="M11.1193 14.6332C10.6077 14.1217 10.3203 13.4279 10.3203 12.7045C10.3203 11.9811 10.6077 11.2874 11.1193 10.7759C12.1838 9.71136 14.8747 8.74682 15.9375 9.81227C17.0002 10.8777 16.0384 13.5677 14.9729 14.6305" stroke="white" stroke-width="1.25" stroke-linecap="round" stroke-linejoin="round"/>
<path d="M15.9395 9.81216L18.8322 6.91943" stroke="white" stroke-width="1.25" stroke-linecap="round" stroke-linejoin="round"/>
<path fill-rule="evenodd" clip-rule="evenodd" d="M19.7953 7.31858C20.5484 7.31858 21.1589 6.70806 21.1589 5.95494C21.1589 5.20183 20.5484 4.59131 19.7953 4.59131C19.0422 4.59131 18.4316 5.20183 18.4316 5.95494C18.4316 6.70806 19.0422 7.31858 19.7953 7.31858Z" stroke="white" stroke-width="1.25" stroke-linecap="round" stroke-linejoin="round"/>
<path d="M18.498 18.1592C18.4777 16.1614 17.5472 14.282 15.9707 13.0547" stroke="white" stroke-width="1.25" stroke-linecap="round" stroke-linejoin="round"/>
<path d="M10.6799 11.3472C6.68623 11.4999 3.49805 14.4908 3.49805 18.159" stroke="white" stroke-width="1.25" stroke-linecap="round" stroke-linejoin="round"/>
<path d="M10.8736 1.11377C12.1818 3.72559 8.23546 4.64104 10.1918 7.25013" stroke="white" stroke-width="1.25" stroke-linecap="round" stroke-linejoin="round"/>
<path d="M6.7838 1.11377C8.09198 3.72559 4.14562 4.64104 6.10198 7.25013" stroke="white" stroke-width="1.25" stroke-linecap="round" stroke-linejoin="round"/>
</svg>
