<svg width="49" height="34" viewBox="0 0 49 34" fill="none" xmlns="http://www.w3.org/2000/svg">
<g clip-path="url(#clip0_9034_3274)">
<path d="M2.39393 20.4192C2.39393 18.4992 2.38535 16.5792 2.40006 14.6604C2.40374 14.1148 2.2652 13.6954 1.80664 13.3423C1.06732 12.7747 0.746094 11.9716 0.746094 11.0422C0.746094 9.77569 0.746094 8.50916 0.746094 7.24386C0.746094 6.82577 0.812302 6.42117 1.33951 6.42975C1.85569 6.43833 1.86182 6.87481 1.8655 7.24141C1.88021 8.56924 1.85446 9.89708 1.88634 11.2237C1.91209 12.2634 2.55455 12.896 3.51824 12.9108C4.45496 12.9255 5.22248 12.2597 5.25558 11.3156C5.29849 10.092 5.2752 8.86595 5.28133 7.63988C5.28133 7.43513 5.33264 7.26999 5.30462 7.03543C5.25558 6.62482 5.50609 6.38558 5.81957 6.41504C6.10752 6.44209 6.24012 6.81351 6.24747 7.01949C6.29406 8.16096 6.30632 9.30734 6.26954 10.45C6.24625 11.1513 6.31627 11.8444 6.15443 12.5248C6.08331 12.8228 5.64302 13.1572 5.36593 13.3215C4.88408 13.6059 4.77741 13.9811 4.77864 14.4924C4.7909 18.4134 4.79826 22.3356 4.76638 26.2565C4.7627 26.6611 4.57511 27.1405 4.30905 27.4397C4.09694 27.6776 3.56238 27.8713 3.30245 27.7646C2.94689 27.6187 2.64037 27.208 2.45646 26.8389C2.31424 26.5532 2.37309 26.1584 2.37186 25.8127C2.36573 24.0153 2.36941 22.2179 2.36941 20.4204H2.39393V20.4192Z" fill="white"/>
<path d="M25.6323 33.4325C16.5459 33.4105 9.17231 26.146 9.29246 16.9137C9.41017 7.79171 16.6256 0.768776 25.5269 0.774906C34.8818 0.781037 41.9268 7.92412 41.939 17.1184C41.9513 26.2269 34.8156 33.3467 25.6323 33.4325ZM39.9209 17.1736C40.0276 9.21395 33.3259 2.8862 25.9057 2.78198C17.9081 2.66919 11.2309 9.14529 11.275 17.1846C11.3167 24.8954 17.5133 31.3715 25.5477 31.4438C33.4203 31.5137 39.916 25.0241 39.9209 17.1748V17.1736Z" fill="white"/>
<path d="M48.7403 17.1406C48.7403 20.5527 48.755 23.9649 48.7219 27.377C48.7182 27.7865 48.5625 28.3076 48.283 28.5688C48.0304 28.8042 47.4823 28.8826 47.1182 28.798C46.6511 28.6901 46.3813 28.2757 46.3838 27.724C46.3948 25.5784 46.374 23.4328 46.3887 21.2884C46.3936 20.576 46.4414 19.9507 45.5525 19.6185C45.246 19.5044 44.9762 18.8473 44.9713 18.4353C44.926 14.9827 44.9333 11.5301 44.9664 8.07622C44.9701 7.72802 45.1896 7.34058 45.4078 7.0451C45.6959 6.65521 46.0724 6.32662 46.4279 5.98945C46.8435 5.59466 47.2567 5.18392 47.9249 5.47328C48.6263 5.77612 48.7464 6.34624 48.7452 7.02548C48.7341 10.3972 48.7403 13.7676 48.7403 17.1393V17.1406Z" fill="white"/>
<path d="M3.00783 12.024C3.00783 12.024 3.01388 8.79085 3.03806 8.12142C3.04894 7.79773 3.09851 7.42501 3.55311 7.4483C3.99078 7.47037 4.02463 7.82348 4.02584 8.16065C4.02947 9.46151 4.02584 10.7624 4.02463 12.0632C4.02463 12.4237 3.94121 12.7265 3.4987 12.7106C3.0574 12.6947 3.00662 12.3759 3.00783 12.024C3.00904 11.3938 3.00783 12.6542 3.00783 12.024Z" fill="white"/>
<path d="M22.3814 12.6892V21.1372H20.9174V15.3292H18.8294V14.3212C19.7294 14.3212 21.0374 14.1532 21.2774 12.6892H22.3814ZM30.6094 14.8732H29.2894C29.1454 14.1052 28.7254 13.7212 28.0174 13.7212C26.5414 13.7212 26.3854 15.6412 26.2894 16.6252C26.7334 15.9652 27.3574 15.5932 28.2094 15.5932C29.7574 15.5932 30.8014 16.7092 30.8014 18.3652C30.8014 20.0812 29.6254 21.3052 27.9694 21.3052C26.0374 21.3052 24.9574 19.8052 24.9574 17.0932C24.9574 14.2972 26.1214 12.6412 28.0774 12.6412C29.5054 12.6412 30.4534 13.4692 30.6094 14.8732ZM27.9334 16.6852C27.0454 16.6852 26.4694 17.3452 26.4694 18.3772C26.4694 19.4572 27.0694 20.1652 27.9694 20.1652C28.8454 20.1652 29.4334 19.4692 29.4334 18.4132C29.4334 17.3692 28.8454 16.6852 27.9334 16.6852Z" fill="white"/>
</g>
<defs>
<clipPath id="clip0_9034_3274">
<rect width="47.9988" height="32.6576" fill="white" transform="translate(0.746094 0.774902)"/>
</clipPath>
</defs>
</svg>
