<svg width="362" height="40" viewBox="0 0 362 40" fill="none" xmlns="http://www.w3.org/2000/svg">
<path d="M92.3203 0.606445H101.898V34.5568C101.898 36.5009 100.713 38.2553 98.9586 39.014C98.3422 39.251 97.7258 39.3933 97.1093 39.3933C95.8765 39.3933 94.7385 38.7769 93.6954 37.9708L61.6891 14.8314V39.3933H52.1109V5.44295C52.1109 3.49887 53.2963 1.69702 55.0508 0.985773C56.8526 0.227106 58.7018 0.890945 60.2666 2.02895L92.2729 25.2157V0.606445H92.3203ZM150.643 18.7196C149.552 17.629 148.225 16.7281 146.802 16.1117C145.332 15.4953 143.72 15.1634 142.108 15.1634H116.455C115.08 15.1634 113.99 14.0254 113.99 12.6977C113.99 11.3226 115.128 10.232 116.455 10.232H146.849C149.505 10.232 151.639 8.09829 151.639 5.44295C151.639 2.78762 149.505 0.65385 146.849 0.65385H116.455C114.843 0.65385 113.231 0.985767 111.761 1.60218C110.339 2.2186 109.011 3.0721 107.92 4.2101C106.83 5.30068 105.929 6.62837 105.312 8.05087C104.696 9.52079 104.364 11.1329 104.364 12.7451C104.364 14.3573 104.696 15.9694 105.312 17.4394C105.929 18.8619 106.782 20.1895 107.92 21.2801C109.011 22.3707 110.339 23.2716 111.761 23.888C113.231 24.5044 114.843 24.8364 116.455 24.8364H142.108C143.483 24.8364 144.573 25.9269 144.573 27.302C144.573 28.6771 143.483 29.7677 142.108 29.7677H109.153C106.498 29.7677 104.364 31.9014 104.364 34.5568C104.364 37.2121 106.498 39.3459 109.153 39.3459H142.108C143.72 39.3459 145.332 39.014 146.802 38.3975C148.225 37.7811 149.552 36.9276 150.643 35.7896C151.733 34.699 152.634 33.3714 153.251 31.9489C153.867 30.4789 154.199 28.8668 154.199 27.2546C154.199 25.6425 153.867 24.0303 153.251 22.5604C152.634 21.1379 151.733 19.8102 150.643 18.7196ZM49.8349 19.9999C49.8349 30.716 41.1577 39.3933 30.4415 39.3933H7.82375H3.50883H0V19.9999V0.606445H30.4889C41.1577 0.606445 49.8349 9.28368 49.8349 19.9999ZM40.2093 19.9999C40.2093 17.3919 39.2136 14.9737 37.3643 13.1244C35.5151 11.2752 33.0968 10.2794 30.4889 10.2794H9.673V19.9999V29.7203H30.4889C33.0968 29.7203 35.5151 28.7245 37.3643 26.8753C39.1662 25.026 40.2093 22.5604 40.2093 19.9999Z" fill="#FF7D00"/>
<path d="M174.068 30.669C173.119 29.9104 171.792 29.531 170.132 29.531H168.141V27.3973H172.361C172.93 27.3973 173.451 27.2076 173.783 26.7809C174.115 26.4016 174.257 26.0222 174.257 25.5006C174.257 25.0265 174.115 24.5523 173.783 24.2204C173.451 23.841 172.93 23.6514 172.361 23.6514H166.244C165.675 23.6514 165.153 23.8411 164.774 24.173C164.395 24.5523 164.205 25.0265 164.205 25.6429V37.3548C164.205 37.9712 164.395 38.4454 164.821 38.8721C165.201 39.2041 165.722 39.3937 166.291 39.3937H170.511C172.076 39.3937 173.309 38.967 174.257 38.1135C175.206 37.26 175.727 35.9797 175.727 34.415C175.68 32.7554 175.158 31.5225 174.068 30.669ZM171.602 34.3676C171.602 34.7943 171.46 35.1262 171.175 35.3633C170.891 35.6004 170.559 35.7426 170.085 35.7426H168.093V33.1821H169.848C171.412 33.1347 171.602 33.7511 171.602 34.3676Z" fill="#FF7D00"/>
<path d="M190.995 23.6514C190.426 23.6514 189.952 23.8411 189.573 24.173C189.194 24.5523 189.004 25.0264 189.004 25.6903V37.3548C189.004 37.9712 189.194 38.4928 189.573 38.8721C189.952 39.2041 190.426 39.3937 190.995 39.3937C191.564 39.3937 192.039 39.2041 192.418 38.8721C192.797 38.4928 192.987 38.0186 192.987 37.3548V25.6903C192.987 25.0739 192.797 24.5523 192.418 24.173C192.039 23.7936 191.564 23.6514 190.995 23.6514Z" fill="#FF7D00"/>
<path d="M186.587 30.5742C185.638 29.7681 184.263 29.3888 182.651 29.3888H180.944V25.6903C180.944 25.0739 180.754 24.5523 180.375 24.173C179.996 23.8411 179.521 23.6514 178.952 23.6514C178.383 23.6514 177.909 23.8411 177.53 24.173C177.151 24.5523 176.961 25.0739 176.961 25.6903V37.3548C176.961 37.9238 177.151 38.4454 177.577 38.8247C177.957 39.1566 178.478 39.3463 179.047 39.3463H182.983C184.548 39.3463 185.78 38.9195 186.729 38.0186C187.677 37.1177 188.199 35.8849 188.199 34.3201C188.199 32.708 187.677 31.4751 186.587 30.5742ZM184.121 34.2727C184.121 34.6995 183.979 35.0788 183.694 35.3633C183.457 35.6004 183.078 35.7426 182.604 35.7426H180.897V32.9925H182.319C182.935 32.9925 183.362 33.1347 183.647 33.3718C184.026 33.6089 184.121 33.8934 184.121 34.2727Z" fill="#FF7D00"/>
<path d="M204.745 24.2204C204.366 23.841 203.939 23.6514 203.418 23.6514H195.831C195.262 23.6514 194.835 23.841 194.503 24.2204C194.172 24.5523 194.029 25.0265 194.029 25.5006C194.029 26.0222 194.172 26.4015 194.456 26.7335C194.788 27.1602 195.262 27.3499 195.879 27.3499H197.68V37.3074C197.68 37.9238 197.87 38.4454 198.249 38.8247C198.629 39.1566 199.103 39.3463 199.672 39.3463C200.241 39.3463 200.715 39.1566 201.094 38.8247C201.474 38.4454 201.663 37.9238 201.663 37.3074V27.3499H203.465C204.082 27.3499 204.556 27.1602 204.888 26.7335C205.172 26.4015 205.314 25.9748 205.314 25.5006C205.22 24.979 205.077 24.5523 204.745 24.2204Z" fill="#FF7D00"/>
<path d="M212.617 23.6514C210.436 23.6514 208.586 24.41 207.211 25.9274C205.836 27.3973 205.125 29.294 205.125 31.5226C205.125 33.7511 205.836 35.6004 207.211 37.1177C208.634 38.635 210.436 39.3937 212.617 39.3937C214.798 39.3937 216.647 38.635 218.07 37.1177C219.445 35.6004 220.156 33.7511 220.156 31.5226C220.156 29.3414 219.445 27.4921 218.07 25.9748C216.6 24.41 214.798 23.6514 212.617 23.6514ZM210.056 28.5353C210.673 27.6818 211.526 27.3025 212.617 27.3025C213.707 27.3025 214.514 27.7292 215.177 28.5353C215.746 29.2939 216.078 30.3371 216.078 31.5226C216.078 32.7554 215.794 33.7511 215.225 34.5098C214.608 35.3159 213.755 35.7426 212.664 35.7426C211.574 35.7426 210.72 35.3633 210.104 34.5098C209.535 33.7511 209.25 32.7554 209.25 31.5226C209.203 30.2897 209.487 29.2939 210.056 28.5353Z" fill="#FF7D00"/>
<path d="M230.636 30.6686C231.49 29.9573 231.916 29.009 231.916 27.7288C231.916 26.4959 231.49 25.5002 230.636 24.7415C229.83 23.9828 228.834 23.6035 227.601 23.6035H223.666C223.097 23.6035 222.575 23.7932 222.196 24.1251C221.817 24.5044 221.627 24.9786 221.627 25.595V37.3069C221.627 37.9233 221.817 38.3975 222.243 38.8243C222.623 39.1562 223.144 39.3459 223.713 39.3459H227.933C229.498 39.3459 230.731 38.9191 231.679 38.0656C232.628 37.2121 233.149 35.9319 233.149 34.3671C233.149 33.3714 232.817 32.4704 232.153 31.7118C231.727 31.285 231.205 30.9057 230.636 30.6686ZM229.071 34.3671C229.071 34.7939 228.929 35.1258 228.645 35.3628C228.36 35.5999 228.028 35.7422 227.554 35.7422H225.563V33.1817H227.317C228.882 33.1343 229.071 33.7507 229.071 34.3671ZM225.61 29.5306V27.302H226.795C227.175 27.302 227.459 27.3968 227.696 27.5865C227.933 27.7762 228.028 28.0133 228.028 28.3452C228.028 28.7245 227.933 29.009 227.696 29.2461C227.459 29.4832 227.175 29.578 226.795 29.578H225.61V29.5306Z" fill="#FF7D00"/>
<path d="M247.231 36.691L243.201 25.6429C242.726 24.3626 241.826 23.6514 240.593 23.6514C239.36 23.6514 238.506 24.3152 237.985 25.6429L233.812 36.7858L233.765 37.0229C233.717 37.2125 233.67 37.4022 233.67 37.5444C233.67 38.066 233.86 38.5402 234.286 38.8721C234.666 39.2041 235.14 39.3937 235.661 39.3937C236.61 39.3937 237.274 38.9195 237.558 38.0186L238.08 36.4065H243.153L243.675 38.0186C243.959 38.9195 244.623 39.3937 245.571 39.3937C246.093 39.3937 246.52 39.2515 246.852 38.9195C247.231 38.5876 247.421 38.1135 247.421 37.6393C247.421 37.5445 247.421 37.4496 247.373 37.26C247.373 37.0229 247.278 36.8332 247.231 36.691ZM241.92 32.708H239.218L240.593 28.5827L241.92 32.708Z" fill="#FF7D00"/>
<path d="M257.569 23.6514H253.965C250.314 23.6514 248.418 25.4058 248.418 28.7724C248.418 29.9578 248.844 31.001 249.65 31.7596C250.219 32.2812 250.931 32.6606 251.784 32.9451L248.797 36.1694C248.465 36.5487 248.275 36.9755 248.275 37.3548C248.275 37.8764 248.465 38.3505 248.844 38.7299C249.413 39.3463 250.219 39.5359 251.073 39.204C251.263 39.1092 251.595 38.967 251.784 38.6825L255.625 33.9882V37.3074C255.625 37.9238 255.815 38.4454 256.194 38.8247C256.573 39.1566 257.047 39.3463 257.616 39.3463C258.185 39.3463 258.66 39.1566 259.039 38.8247C259.418 38.4454 259.608 37.9238 259.608 37.3074V25.6903C259.608 24.3626 258.897 23.6514 257.569 23.6514ZM252.875 27.7292C253.159 27.4921 253.491 27.3499 253.965 27.3499H255.672V30.1475H253.965C253.491 30.1475 253.159 30.0052 252.875 29.7681C252.59 29.531 252.495 29.1517 252.495 28.725C252.495 28.2982 252.59 27.9663 252.875 27.7292Z" fill="#FF7D00"/>
<path d="M276.488 23.6514H268.901C268.332 23.6514 267.906 23.841 267.574 24.2204C267.242 24.5523 267.1 25.0265 267.1 25.5006C267.1 25.9748 267.242 26.4015 267.526 26.7335C267.858 27.1602 268.332 27.3499 268.949 27.3499H270.751V37.3074C270.751 37.9238 270.94 38.4454 271.32 38.8247C271.699 39.1566 272.173 39.3463 272.742 39.3463C273.311 39.3463 273.785 39.1566 274.165 38.8247C274.544 38.4454 274.734 37.9238 274.734 37.3074V27.3499H276.536C277.152 27.3499 277.626 27.1602 277.958 26.7335C278.243 26.4015 278.385 25.9748 278.385 25.5006C278.385 24.979 278.243 24.5523 277.911 24.2204C277.484 23.841 277.057 23.6514 276.488 23.6514Z" fill="#FF7D00"/>
<path d="M286.635 35.6004H283.268V33.3244H286.208C286.824 33.3244 287.299 33.1347 287.678 32.708C288.01 32.3286 288.152 31.9493 288.152 31.4277C288.152 30.9061 288.01 30.4794 287.678 30.1475C287.346 29.7681 286.824 29.5785 286.208 29.5785H283.268V27.3973H286.445C287.062 27.3973 287.536 27.2076 287.868 26.7809C288.2 26.4016 288.342 26.0222 288.342 25.5006C288.342 25.0265 288.2 24.5523 287.868 24.2204C287.536 23.841 287.014 23.6514 286.445 23.6514H281.324C279.996 23.6514 279.285 24.4574 279.285 25.9274V37.4022C279.285 37.9712 279.475 38.4928 279.854 38.8721C280.233 39.2515 280.708 39.4411 281.277 39.4411H286.587C287.156 39.4411 287.678 39.2515 288.01 38.8247C288.342 38.4454 288.484 38.066 288.484 37.5444C288.484 37.0703 288.342 36.5961 288.01 36.2642C287.678 35.7901 287.204 35.6004 286.635 35.6004Z" fill="#FF7D00"/>
<path d="M302.188 36.1695L298.3 30.9537L301.429 26.6862C301.714 26.3542 301.856 25.9275 301.856 25.5007C301.856 24.8843 301.666 24.4102 301.287 24.0782C300.908 23.7463 300.433 23.5566 299.864 23.5566C299.201 23.5566 298.584 23.8886 298.157 24.505L295.976 27.6345L293.795 24.5524C293.368 23.936 292.799 23.6041 292.088 23.6041C291.519 23.6041 291.045 23.7937 290.713 24.1256C290.334 24.4576 290.097 24.9317 290.097 25.5481C290.097 25.9749 290.239 26.3542 290.523 26.6862L293.653 30.9537L289.765 36.1695C289.622 36.3592 289.528 36.5488 289.48 36.6911C289.385 36.9281 289.338 37.2127 289.338 37.4498C289.338 38.0188 289.528 38.4929 289.907 38.8248C290.286 39.1567 290.76 39.3464 291.329 39.3464C291.993 39.3464 292.562 39.0619 292.942 38.4929L295.976 34.3202L299.011 38.4929C299.438 39.0619 299.959 39.3464 300.623 39.3464C301.192 39.3464 301.666 39.2042 302.046 38.8248C302.425 38.4929 302.615 38.0188 302.615 37.4498C302.615 37.2127 302.567 37.023 302.472 36.6911C302.425 36.5488 302.33 36.3592 302.188 36.1695Z" fill="#FF7D00"/>
<path d="M315.275 23.6514C314.706 23.6514 314.232 23.8411 313.852 24.173C313.473 24.5523 313.283 25.0264 313.283 25.6903V29.6259H307.688V25.6903C307.688 25.0739 307.498 24.5523 307.119 24.173C306.74 23.8411 306.266 23.6514 305.697 23.6514C305.128 23.6514 304.653 23.8411 304.274 24.173C303.895 24.5523 303.705 25.0264 303.705 25.6903V37.3548C303.705 37.9712 303.895 38.4928 304.274 38.8721C304.653 39.2041 305.128 39.3937 305.697 39.3937C306.266 39.3937 306.74 39.2041 307.119 38.8721C307.498 38.4928 307.688 38.0186 307.688 37.3548V33.3244H313.283V37.3548C313.283 37.9712 313.473 38.4928 313.852 38.8721C314.232 39.2041 314.706 39.3937 315.275 39.3937C315.844 39.3937 316.318 39.2041 316.697 38.8721C317.077 38.4928 317.266 38.0186 317.266 37.3548V25.6903C317.266 25.0739 317.077 24.5523 316.697 24.173C316.318 23.7936 315.844 23.6514 315.275 23.6514Z" fill="#FF7D00"/>
<path d="M330.97 23.6514C330.306 23.6514 329.785 23.9359 329.31 24.5049L323.383 32.2338V25.6903C323.383 25.0739 323.194 24.5523 322.814 24.173C322.435 23.8411 321.961 23.6514 321.392 23.6514C320.823 23.6514 320.349 23.8411 319.969 24.173C319.59 24.5523 319.4 25.0264 319.4 25.6903V37.3548C319.4 37.9712 319.59 38.4928 319.969 38.8721C320.349 39.2041 320.823 39.3937 321.392 39.3937C322.056 39.3937 322.577 39.1092 323.051 38.5402L328.979 30.9061V37.3548C328.979 37.9712 329.168 38.4928 329.548 38.8721C329.927 39.2041 330.401 39.3937 330.97 39.3937C331.539 39.3937 332.013 39.2041 332.393 38.8721C332.772 38.4928 332.962 38.0186 332.962 37.3548V25.6903C332.962 25.0739 332.772 24.5523 332.393 24.173C332.013 23.7936 331.539 23.6514 330.97 23.6514Z" fill="#FF7D00"/>
<path d="M342.113 31.0008L345.717 27.4919C346.476 26.7333 346.855 26.1168 346.855 25.5478C346.855 25.0263 346.665 24.5521 346.239 24.1728C345.622 23.6038 344.769 23.4615 343.963 23.8883C343.726 24.0305 343.536 24.1728 343.394 24.3624L339.079 28.9144V25.5953C339.079 24.9789 338.889 24.5047 338.51 24.1728C338.13 23.8409 337.656 23.6512 337.087 23.6512C336.518 23.6512 336.044 23.8409 335.665 24.2202C335.285 24.5995 335.096 25.0737 335.096 25.5953V37.4494C335.096 38.0184 335.285 38.4926 335.665 38.8245C336.044 39.1564 336.518 39.3461 337.087 39.3461C337.656 39.3461 338.13 39.1564 338.51 38.7771C338.889 38.3978 339.079 37.971 339.079 37.402V33.2768L343.678 38.2081C344.342 38.9194 345.006 39.2987 345.575 39.2987C346.096 39.2987 346.571 39.1565 346.95 38.872C347.377 38.54 347.614 38.0659 347.614 37.4494C347.614 36.8804 347.282 36.264 346.618 35.6002L342.113 31.0008Z" fill="#FF7D00"/>
<path d="M361.981 37.2126C361.933 37.0229 361.886 36.8332 361.839 36.691L357.808 25.6429C357.334 24.3626 356.433 23.6514 355.2 23.6514C353.967 23.6514 353.114 24.3152 352.592 25.6429L348.42 36.7858L348.372 37.0229C348.325 37.2125 348.277 37.4022 348.277 37.5444C348.277 38.066 348.467 38.5402 348.894 38.8721C349.273 39.2041 349.747 39.3937 350.269 39.3937C351.217 39.3937 351.881 38.9195 352.166 38.0186L352.687 36.4065H357.713L358.235 38.0186C358.519 38.9195 359.183 39.3937 360.132 39.3937C360.653 39.3937 361.08 39.2515 361.412 38.9195C361.791 38.5876 361.981 38.1135 361.981 37.6393C362.028 37.497 361.981 37.4022 361.981 37.2126ZM356.528 32.708H353.825L355.2 28.5827L356.528 32.708Z" fill="#FF7D00"/>
<path d="M194.315 2.64536C194.315 2.02894 194.125 1.50735 193.746 1.12802C193.367 0.7961 192.893 0.606445 192.324 0.606445C191.66 0.606445 191.138 0.89094 190.664 1.45994L184.737 9.18885V2.64536C184.737 2.02894 184.547 1.50735 184.168 1.12802C183.789 0.7961 183.314 0.606445 182.745 0.606445C182.176 0.606445 181.702 0.7961 181.323 1.12802C180.944 1.50735 180.754 1.98152 180.754 2.64536V14.3098C180.754 14.9263 180.944 15.4479 181.323 15.8272C181.702 16.1591 182.176 16.3488 182.745 16.3488C183.409 16.3488 183.931 16.0643 184.405 15.4953L190.332 7.86119V14.3098C190.332 14.9263 190.522 15.4479 190.901 15.8272C191.28 16.1591 191.755 16.3488 192.324 16.3488C192.893 16.3488 193.367 16.1591 193.746 15.8272C194.125 15.4479 194.315 14.9737 194.315 14.3098V2.64536Z" fill="#FF7D00"/>
<path d="M201.284 14.4996C201.474 14.4996 201.711 14.4996 202.043 14.4522C202.138 14.4522 202.233 14.4522 202.28 14.4048C202.327 14.9738 202.47 15.4479 202.849 15.7799C203.228 16.1118 203.703 16.3014 204.272 16.3014C204.841 16.3014 205.315 16.1118 205.694 15.7799C206.026 15.4479 206.216 14.9738 206.263 14.4048C206.358 14.4048 206.453 14.4522 206.5 14.4522C206.832 14.4996 207.117 14.4996 207.259 14.4996C208.918 14.4996 210.293 13.8832 211.384 12.6978C212.427 11.5124 212.996 10.0898 212.996 8.38283C212.996 6.67583 212.475 5.25335 211.431 4.06793C210.341 2.83509 208.966 2.21867 207.306 2.21867C207.117 2.21867 206.879 2.21868 206.548 2.2661C206.453 2.2661 206.358 2.26609 206.263 2.31351C206.216 1.83934 206.026 1.4126 205.694 1.08068C205.315 0.748766 204.841 0.559082 204.272 0.559082C203.703 0.559082 203.228 0.748766 202.849 1.08068C202.517 1.4126 202.375 1.79192 202.28 2.31351C202.185 2.31351 202.138 2.31351 202.043 2.31351C201.711 2.26609 201.427 2.2661 201.237 2.2661C199.577 2.2661 198.202 2.8825 197.112 4.11533C196.068 5.30075 195.547 6.72327 195.547 8.43027C195.547 10.1373 196.068 11.5598 197.159 12.6978C198.297 13.8832 199.672 14.4996 201.284 14.4996ZM199.672 8.38283C199.672 7.67158 199.909 7.10261 200.383 6.62844C200.858 6.15427 201.427 5.9646 202.043 5.9646C202.138 5.9646 202.233 5.96458 202.375 6.012V10.8011C202.185 10.8485 202.09 10.8485 202.043 10.8485C201.379 10.8485 200.81 10.6114 200.383 10.1847C199.909 9.71052 199.672 9.09408 199.672 8.38283ZM206.216 10.7537V6.012C206.31 6.012 206.453 5.9646 206.548 5.9646C207.211 5.9646 207.733 6.20169 208.207 6.62844C208.681 7.10261 208.918 7.67158 208.918 8.38283C208.918 9.09408 208.681 9.71051 208.207 10.1373C207.733 10.564 207.211 10.8011 206.548 10.8011C206.453 10.8011 206.358 10.8011 206.216 10.7537Z" fill="#FF7D00"/>
<path d="M225.705 5.96452C225.705 4.39977 225.136 3.0721 224.045 2.07635C223.002 1.0806 221.627 0.606445 219.967 0.606445H216.316C214.989 0.606445 214.277 1.31769 214.277 2.64536V14.2624C214.277 14.8789 214.467 15.4004 214.846 15.7798C215.226 16.1117 215.7 16.3014 216.269 16.3014C216.838 16.3014 217.312 16.1117 217.691 15.7798C218.071 15.4004 218.26 14.8789 218.26 14.2624V11.3226H220.11C221.674 11.3226 222.955 10.8484 224.045 9.9001C225.183 8.90435 225.705 7.57669 225.705 5.96452ZM221.627 5.96452C221.627 6.48611 221.485 6.91286 221.153 7.24478C220.868 7.5767 220.442 7.71895 219.92 7.71895H218.308V4.2101H219.967C220.489 4.2101 220.868 4.35235 221.2 4.68427C221.485 5.01618 221.627 5.44294 221.627 5.96452Z" fill="#FF7D00"/>
<path d="M234.003 16.3014C236.184 16.3014 238.033 15.5428 239.456 14.0254C240.831 12.5081 241.542 10.6589 241.542 8.43027C241.542 6.2491 240.831 4.39984 239.456 2.88251C238.033 1.31776 236.232 0.559082 234.05 0.559082C231.869 0.559082 230.02 1.31777 228.645 2.83511C227.27 4.30502 226.559 6.20168 226.559 8.43027C226.559 10.6589 227.27 12.5081 228.645 14.0254C229.973 15.5428 231.822 16.3014 234.003 16.3014ZM231.443 5.49043C232.059 4.63693 232.912 4.25761 234.003 4.25761C235.094 4.25761 235.9 4.68434 236.564 5.49043C237.133 6.2491 237.464 7.29226 237.464 8.47767C237.464 9.71051 237.18 10.7063 236.611 11.4649C235.994 12.271 235.141 12.6978 234.05 12.6978C232.96 12.6978 232.106 12.3184 231.49 11.4649C230.921 10.7063 230.636 9.71051 230.636 8.47767C230.589 7.24484 230.874 6.2491 231.443 5.49043Z" fill="#FF7D00"/>
<path d="M245.098 16.3014H249.318C250.883 16.3014 252.116 15.8747 253.064 15.0212C254.012 14.1677 254.534 12.8874 254.534 11.3227C254.534 10.3269 254.202 9.42602 253.538 8.66735C253.111 8.19318 252.59 7.81385 252.021 7.62418C252.874 6.91293 253.301 5.96459 253.301 4.68434C253.301 3.45151 252.874 2.45576 252.021 1.69709C251.215 0.938427 250.219 0.559082 248.986 0.559082H245.051C244.482 0.559082 243.96 0.748766 243.581 1.08068C243.201 1.46002 243.012 1.93417 243.012 2.55059V14.2625C243.012 14.8789 243.201 15.3531 243.628 15.7799C244.055 16.1592 244.529 16.3014 245.098 16.3014ZM246.995 12.6978V10.1373H248.749C250.266 10.1373 250.504 10.7537 250.504 11.3227C250.504 11.7494 250.361 12.0814 250.077 12.3184C249.792 12.5555 249.46 12.6978 248.986 12.6978H246.995ZM246.995 6.48617V4.25761H248.18C248.559 4.25761 248.844 4.35243 249.081 4.54209C249.318 4.73176 249.413 4.96883 249.413 5.30075C249.413 5.68008 249.318 5.9646 249.081 6.20168C248.844 6.43876 248.559 6.5336 248.18 6.5336H246.995V6.48617Z" fill="#FF7D00"/>
<path d="M268.806 14.5469C268.806 14.4521 268.806 14.3573 268.758 14.1676C268.711 13.9779 268.663 13.7883 268.616 13.646L264.585 2.59795C264.111 1.3177 263.21 0.606445 261.978 0.606445C260.745 0.606445 259.891 1.27028 259.37 2.59795L255.197 13.7409L255.15 13.978C255.102 14.1676 255.055 14.3573 255.055 14.5469C255.055 15.0685 255.244 15.5427 255.671 15.8746C256.05 16.2065 256.525 16.3962 257.046 16.3962C257.995 16.3962 258.658 15.922 258.943 15.0211L259.464 13.4089H264.538L265.06 15.0211C265.344 15.922 266.008 16.3962 266.956 16.3962C267.478 16.3962 267.905 16.2539 268.237 15.922C268.616 15.4953 268.806 15.0685 268.806 14.5469ZM263.305 9.66302H260.602L261.978 5.53776L263.305 9.66302Z" fill="#FF7D00"/>
<path d="M280.993 14.2624V2.64536C280.993 1.31769 280.282 0.606445 278.954 0.606445H275.35C271.699 0.606445 269.802 2.36086 269.802 5.72744C269.802 6.91286 270.229 7.95602 271.035 8.71469C271.604 9.23627 272.316 9.6156 273.169 9.9001L270.182 13.1244C269.85 13.5038 269.66 13.9305 269.66 14.3098C269.66 14.8314 269.85 15.3056 270.229 15.6849C270.798 16.3014 271.604 16.491 272.458 16.1591C272.647 16.0643 272.979 15.922 273.169 15.6375L277.01 10.9433V14.2624C277.01 14.8789 277.199 15.4004 277.579 15.7798C277.958 16.1117 278.432 16.3014 279.001 16.3014C279.57 16.3014 280.044 16.1117 280.424 15.7798C280.803 15.4004 280.993 14.8789 280.993 14.2624ZM274.26 4.68427C274.544 4.44718 274.876 4.30494 275.35 4.30494H277.057V7.10254H275.35C274.876 7.10254 274.544 6.96026 274.26 6.72318C273.975 6.4861 273.88 6.10679 273.88 5.68004C273.88 5.25329 273.975 4.92135 274.26 4.68427Z" fill="#FF7D00"/>
<path d="M301.144 0.606445C300.48 0.606445 299.958 0.89094 299.484 1.45994L293.557 9.18885V2.64536C293.557 2.02894 293.368 1.50735 292.988 1.12802C292.609 0.7961 292.135 0.606445 291.566 0.606445C290.997 0.606445 290.523 0.7961 290.143 1.12802C289.764 1.50735 289.574 1.98152 289.574 2.64536V14.3098C289.574 14.9263 289.764 15.4479 290.143 15.8272C290.523 16.1591 290.997 16.3488 291.566 16.3488C292.23 16.3488 292.751 16.0643 293.225 15.4953L299.152 7.86119V14.3098C299.152 14.9263 299.342 15.4479 299.721 15.8272C300.101 16.1591 300.575 16.3488 301.144 16.3488C301.713 16.3488 302.187 16.1591 302.566 15.8272C302.946 15.4479 303.135 14.9737 303.135 14.3098V2.64536C303.135 2.02894 302.946 1.50735 302.566 1.12802C302.187 0.7961 301.713 0.606445 301.144 0.606445Z" fill="#FF7D00"/>
<path d="M179.141 18.4825C179.52 18.1032 179.71 17.5816 179.71 16.9652V14.784C179.71 14.1676 179.52 13.646 179.141 13.2667C178.809 12.9348 178.288 12.7451 177.719 12.7451H177.624V2.64536C177.624 2.02894 177.434 1.50735 177.055 1.12802C176.675 0.7961 176.201 0.606445 175.632 0.606445C175.063 0.606445 174.589 0.7961 174.21 1.12802C173.83 1.50735 173.641 2.02894 173.641 2.64536V12.6977H168.046V2.64536C168.046 2.02894 167.856 1.50735 167.477 1.12802C167.097 0.7961 166.623 0.606445 166.054 0.606445C165.485 0.606445 165.011 0.7961 164.632 1.12802C164.252 1.50735 164.062 2.02894 164.062 2.64536V14.2624C164.062 14.8789 164.252 15.4004 164.632 15.7798C164.963 16.1117 165.485 16.3014 166.007 16.3014H175.632V16.9178C175.632 17.5342 175.822 18.0558 176.201 18.4351C176.581 18.767 177.055 18.9567 177.624 18.9567C178.288 19.0041 178.762 18.8145 179.141 18.4825Z" fill="#FF7D00"/>
</svg>
