<svg width="52" height="64" viewBox="0 0 52 64" fill="none" xmlns="http://www.w3.org/2000/svg">
<g clip-path="url(#clip0_12895_3591)">
<path d="M25.8531 48.3767C18.2296 48.3767 10.6088 48.3767 2.98532 48.3767C1.90497 48.3767 1.04494 47.8432 0.683937 46.885C0.543253 46.508 0.490165 46.078 0.490165 45.6719C0.479547 39.726 0.482202 33.7801 0.482202 27.8342C0.482202 22.3343 0.503437 16.8343 0.46893 11.3344C0.458312 9.77887 0.917526 8.49413 1.99256 7.3607C3.85597 5.39643 5.65566 3.37642 7.4819 1.37764C8.31273 0.461868 9.3453 0 10.5823 0C21.0407 0 31.4964 0 41.9548 0C43.2395 0 44.2721 0.501685 45.0791 1.49975C46.7726 3.59673 48.4767 5.68576 50.1729 7.78275C50.8949 8.67729 51.2214 9.7072 51.2214 10.8539C51.2214 17.2564 51.2214 23.6588 51.2214 30.0613C51.2214 35.317 51.2214 40.5728 51.2214 45.8285C51.2214 47.0389 50.5923 47.9441 49.504 48.2653C49.2332 48.3449 48.9412 48.3714 48.6572 48.3714C41.055 48.3767 33.4554 48.3767 25.8531 48.3767V48.3767ZM25.8372 45.6586C33.2165 45.6586 40.5957 45.6586 47.9724 45.6586C48.5006 45.6586 48.5006 45.6586 48.5006 45.141C48.5006 41.3399 48.5006 37.5388 48.5006 33.7376C48.5006 26.1035 48.5006 18.4694 48.5006 10.8353C48.5006 10.3496 48.3758 9.90628 48.0732 9.53201C46.3797 7.43502 44.6809 5.34069 42.9768 3.24901C42.6874 2.89331 42.2946 2.71547 41.8354 2.71547C31.4194 2.71547 21.0062 2.71547 10.5902 2.71547C10.1655 2.71547 9.80982 2.86677 9.51784 3.1853C7.57746 5.31149 5.63708 7.43502 3.69405 9.55324C3.35163 9.92486 3.19767 10.3522 3.19767 10.8539C3.20032 22.2785 3.19767 33.7031 3.20298 45.1277C3.20298 45.7011 3.11538 45.6586 3.7259 45.6586C11.0946 45.6586 18.4632 45.6586 25.8292 45.6586H25.8372Z" fill="white"/>
<path d="M27.8572 15.515C28.5553 14.8434 29.2932 14.3364 30.1612 14.0338C32.813 13.1101 35.7434 14.1692 37.1928 16.5715C38.8597 19.3321 38.3793 22.6634 35.9956 24.8612C35.9346 24.9196 35.8602 24.9621 35.7673 25.0284C35.985 25.2886 36.1681 25.5009 36.3486 25.7212C39.4198 29.4799 38.3846 35.24 34.2012 37.6555C31.1858 39.3941 27.2148 38.6721 24.9904 35.9832C24.6878 35.6169 24.6692 35.2134 24.9426 34.9161C25.2479 34.5843 25.6965 34.6003 26.023 34.9745C26.5804 35.6143 27.2201 36.1478 27.9872 36.5168C31.3371 38.1306 35.263 36.3893 36.3885 32.7953C37.222 30.1355 36.3991 27.4148 34.2384 25.6655C33.673 25.2063 33.7155 24.6409 34.3499 24.2587C37.5484 22.3342 37.5591 17.6731 34.3685 15.7858C32.4812 14.6683 30.0418 15.1168 28.6163 16.8449C28.5208 16.959 28.4332 17.0785 28.3429 17.1979C27.9793 17.6757 27.4378 17.6439 27.1192 17.1342C26.8618 16.7201 26.6255 16.2848 26.3176 15.9132C23.9711 13.1048 20.0877 12.911 17.4598 15.4566C15.2381 17.6093 14.9753 21.3707 16.8679 23.9242C16.9369 24.0171 17.0139 24.1074 17.0802 24.2029C17.3324 24.5533 17.2899 25.0178 16.9794 25.262C16.6529 25.5195 16.2335 25.4558 15.9442 25.0895C14.7258 23.5579 14.1179 21.806 14.1869 19.8603C14.2904 16.9856 15.5221 14.7054 18.0146 13.2083C21.2132 11.2892 25.3461 12.1651 27.6023 15.1885C27.6767 15.2894 27.7563 15.3849 27.8572 15.515V15.515Z" fill="white"/>
<path d="M31.7463 28.4127C31.733 27.7598 31.3004 26.8519 30.451 26.1432C29.8909 25.676 29.9227 25.1398 30.5412 24.7523C31.4941 24.1551 31.9454 23.1013 31.7277 21.9811C31.5313 20.9645 30.7376 20.1761 29.6891 20.0009C28.8636 19.8629 28.1655 20.1522 27.5842 20.7388C27.4886 20.837 27.409 20.9512 27.3214 21.0574C26.9445 21.506 26.403 21.4661 26.119 20.9512C25.7712 20.3221 25.32 19.8018 24.6776 19.4647C22.6549 18.4029 20.189 19.7089 19.8917 21.9784C19.7563 23.003 19.9793 23.9135 20.6057 24.7311C20.9136 25.1319 20.8951 25.4902 20.5659 25.8831C18.6786 28.1234 16.7887 30.3637 14.9014 32.6014C14.5643 32.9996 14.1422 33.0872 13.8237 32.827C13.4786 32.5457 13.46 32.0705 13.7998 31.6697C15.5013 29.647 17.2001 27.6244 18.9149 25.6123C19.1325 25.3575 19.1644 25.177 19.0051 24.8691C17.5903 22.1138 18.9096 18.7666 21.7631 17.8216C23.4672 17.2589 25.4155 17.7898 26.6047 19.1568C26.7746 19.3532 26.8887 19.393 27.1197 19.2232C29.4476 17.527 32.6727 18.9126 33.1425 21.8749C33.3469 23.165 33.0098 24.3196 32.1339 25.2965C31.9587 25.4902 31.9905 25.6176 32.1339 25.8114C33.4478 27.6138 33.5115 29.9205 32.3117 31.7175C30.7775 34.0162 27.7355 34.5099 25.5615 32.8058C25.3465 32.6386 25.2138 32.6306 24.9882 32.7846C22.8142 34.271 20.6349 35.7442 18.453 37.2174C18.0071 37.52 17.6009 37.4802 17.3594 37.1272C17.1019 36.7503 17.2081 36.3043 17.6461 36.007C20.0695 34.3586 22.493 32.7156 24.9192 31.0725C25.3014 30.8123 25.6465 30.8548 25.9464 31.1733C27.0002 32.2962 28.3301 32.6359 29.6414 32.1157C30.9049 31.614 31.749 30.3107 31.7463 28.4127V28.4127Z" fill="white"/>
<path d="M15.9959 35.4074C15.5579 35.3915 15.3429 35.2375 15.2314 34.9561C15.112 34.6509 15.165 34.3642 15.4039 34.1359C15.8286 33.7351 16.2613 33.3449 16.6966 32.952C17.9336 31.8345 19.1732 30.7197 20.4102 29.6048C20.8136 29.2412 21.2516 29.2173 21.5303 29.5385C21.825 29.8782 21.7639 30.3321 21.3711 30.6878C19.7519 32.1557 18.1327 33.6263 16.5029 35.0862C16.3303 35.2402 16.1047 35.3384 15.9932 35.4047L15.9959 35.4074Z" fill="white"/>
<path d="M10.2936 56.4579C10.2544 56.0912 10.0893 55.8058 9.79826 55.6015C9.50999 55.3971 9.13497 55.295 8.67318 55.295C8.34853 55.295 8.07006 55.344 7.83777 55.4419C7.60548 55.5399 7.42776 55.6728 7.30462 55.8407C7.18148 56.0087 7.11851 56.2004 7.11571 56.4159C7.11571 56.595 7.15629 56.7503 7.23745 56.8819C7.32141 57.0134 7.43476 57.1253 7.57749 57.2177C7.72023 57.3073 7.87835 57.3828 8.05187 57.4444C8.22539 57.506 8.40031 57.5577 8.57663 57.5997L9.38265 57.8012C9.7073 57.8768 10.0194 57.9789 10.3188 58.1077C10.6211 58.2364 10.8912 58.3987 11.129 58.5947C11.3697 58.7906 11.56 59.0271 11.7 59.3041C11.8399 59.5812 11.9099 59.9058 11.9099 60.2781C11.9099 60.7818 11.7811 61.2254 11.5237 61.6089C11.2662 61.9895 10.8939 62.2875 10.407 62.503C9.9228 62.7157 9.33647 62.8221 8.64799 62.8221C7.97911 62.8221 7.39838 62.7185 6.9058 62.5114C6.41603 62.3043 6.03261 62.0021 5.75554 61.6047C5.48127 61.2072 5.33294 60.7231 5.31055 60.1521H6.84283C6.86522 60.4516 6.95758 60.7007 7.1199 60.8994C7.28223 61.0981 7.49353 61.2464 7.75381 61.3444C8.01689 61.4423 8.31075 61.4913 8.6354 61.4913C8.97404 61.4913 9.2707 61.4409 9.52539 61.3402C9.78287 61.2366 9.98437 61.0939 10.1299 60.912C10.2754 60.7273 10.3496 60.5118 10.3524 60.2655C10.3496 60.0416 10.2838 59.8569 10.1551 59.7113C10.0264 59.563 9.84584 59.4399 9.61355 59.3419C9.38405 59.2412 9.11538 59.1516 8.80752 59.0732L7.82937 58.8214C7.1213 58.6394 6.56156 58.3638 6.15016 57.9943C5.74155 57.6221 5.53724 57.1281 5.53724 56.5124C5.53724 56.0059 5.67438 55.5623 5.94865 55.1816C6.22572 54.801 6.60215 54.5058 7.07792 54.2959C7.5537 54.0832 8.09245 53.9768 8.69417 53.9768C9.30429 53.9768 9.83884 54.0832 10.2978 54.2959C10.7596 54.5058 11.122 54.7982 11.3851 55.1732C11.6482 55.5455 11.7839 55.9737 11.7923 56.4579H10.2936Z" fill="white"/>
<path d="M12.9206 55.3999V54.0944H19.7802V55.3999H17.1228V62.692H15.5779V55.3999H12.9206Z" fill="white"/>
<path d="M21.1026 62.692V54.0944H26.6943V55.3999H22.66V57.7341H26.4047V59.0397H22.66V61.3864H26.7279V62.692H21.1026Z" fill="white"/>
<path d="M29.3874 62.692H27.725L30.7518 54.0944H32.6745L35.7055 62.692H34.043L31.7467 55.8575H31.6795L29.3874 62.692ZM29.442 59.3209H33.9759V60.5719H29.442V59.3209Z" fill="white"/>
<path d="M36.8379 54.0944H38.7438L41.2962 60.3243H41.397L43.9494 54.0944H45.8553V62.692H44.3608V56.7853H44.281L41.9049 62.6668H40.7882L38.4121 56.7727H38.3324V62.692H36.8379V54.0944Z" fill="white"/>
</g>
<defs>
<clipPath id="clip0_12895_3591">
<rect width="50.7551" height="63.56" fill="white" transform="translate(0.466797)"/>
</clipPath>
</defs>
</svg>
