<svg width="42" height="38" viewBox="0 0 42 38" fill="none" xmlns="http://www.w3.org/2000/svg">
<path fill-rule="evenodd" clip-rule="evenodd" d="M0.90625 1.7166C0.90625 1.29548 1.24204 0.954102 1.65625 0.954102H40.274C40.6882 0.954102 41.024 1.29548 41.024 1.7166C41.024 2.13772 40.6882 2.4791 40.274 2.4791H1.65625C1.24204 2.4791 0.90625 2.13772 0.90625 1.7166Z" fill="white"/>
<path fill-rule="evenodd" clip-rule="evenodd" d="M0.90625 10.3582C0.90625 9.93709 1.24204 9.5957 1.65625 9.5957H40.274C40.6882 9.5957 41.024 9.93709 41.024 10.3582C41.024 10.7793 40.6882 11.1207 40.274 11.1207H1.65625C1.24204 11.1207 0.90625 10.7793 0.90625 10.3582Z" fill="white"/>
<path fill-rule="evenodd" clip-rule="evenodd" d="M0.90625 18.9998C0.90625 18.5787 1.24204 18.2373 1.65625 18.2373H40.274C40.6882 18.2373 41.024 18.5787 41.024 18.9998C41.024 19.4209 40.6882 19.7623 40.274 19.7623H1.65625C1.24204 19.7623 0.90625 19.4209 0.90625 18.9998Z" fill="white"/>
<path fill-rule="evenodd" clip-rule="evenodd" d="M0.90625 27.6414C0.90625 27.2203 1.24204 26.8789 1.65625 26.8789H40.274C40.6882 26.8789 41.024 27.2203 41.024 27.6414C41.024 28.0625 40.6882 28.4039 40.274 28.4039H1.65625C1.24204 28.4039 0.90625 28.0625 0.90625 27.6414Z" fill="white"/>
<path fill-rule="evenodd" clip-rule="evenodd" d="M0.90625 36.2835C0.90625 35.8624 1.24204 35.521 1.65625 35.521H40.274C40.6882 35.521 41.024 35.8624 41.024 36.2835C41.024 36.7046 40.6882 37.046 40.274 37.046H1.65625C1.24204 37.046 0.90625 36.7046 0.90625 36.2835Z" fill="white"/>
</svg>
