<svg width="400" height="50" viewBox="0 0 400 50" fill="none" xmlns="http://www.w3.org/2000/svg">
<path d="M86.5348 22.6742H99.1628C98.9453 19.0303 96.5526 16.5403 93.1207 16.5403C89.1329 16.5403 87.1995 18.9696 86.5348 22.6742ZM78.9943 25.7228C78.9943 17.2205 84.698 10.6858 93.0119 10.6858C102.148 10.6858 107.03 17.7064 107.03 27.897H86.414C86.9819 32.3061 89.4109 35.0268 93.6645 35.0268C94.8369 35.1367 96.0123 34.8513 97.0055 34.2158C97.9988 33.5803 98.7535 32.6307 99.1507 31.5166H106.57C105.519 36.5937 101.036 40.8813 93.7128 40.8813C84.3113 40.8813 78.9943 34.2252 78.9943 25.7228Z" fill="#535D62"/>
<path d="M157.952 22.6742H170.58C170.363 19.0303 167.982 16.5403 164.538 16.5403C160.55 16.5403 158.617 18.9696 157.952 22.6742ZM150.412 25.7228C150.412 17.2205 156.116 10.6858 164.442 10.6858C173.577 10.6858 178.447 17.7064 178.447 27.897H157.844C158.387 32.3061 160.828 35.0268 165.094 35.0268C166.267 35.1388 167.443 34.8544 168.437 34.2185C169.431 33.5827 170.185 32.6319 170.58 31.5166H178.012C176.961 36.5937 172.465 40.8813 165.155 40.8813C155.741 40.8813 150.412 34.2495 150.412 25.7228Z" fill="#535D62"/>
<path d="M20.954 24.5082C20.954 20.3178 18.6942 16.759 14.066 16.759C10.1628 16.759 7.5647 19.7712 7.5647 24.5568C7.5647 29.3424 10.1628 32.2454 14.1143 32.2454C18.948 32.2454 20.954 28.7351 20.954 24.5082ZM0.664629 40.8813H8.26558C8.88187 42.6547 10.5253 44.0515 14.0781 44.0515C18.4284 44.0515 20.5189 41.9988 20.5189 38.0877V34.9783H20.3498C19.421 36.0754 18.2564 36.9462 16.9438 37.5249C15.6313 38.1035 14.2051 38.3748 12.773 38.3185C6.32003 38.3185 0 33.3021 0 24.6661C0 16.0302 5.1962 10.6858 12.5434 10.6858C14.0879 10.6044 15.6285 10.9077 17.0283 11.5688C18.4281 12.23 19.6438 13.2284 20.5673 14.4755H20.6881V11.4754H28.0836V37.8691C28.1842 39.4825 27.9274 41.0983 27.3319 42.6001C26.7364 44.1018 25.8169 45.4521 24.6396 46.5536C22.2228 48.7885 18.4767 49.7845 14.1868 49.7845C6.27169 49.7845 1.41385 46.4443 0.616294 40.8813" fill="#535D62"/>
<path d="M139.802 0.21582H147.475V7.01769H139.802V0.21582ZM134.968 49.1164V43.7235C138.074 43.7235 139.802 43.3834 139.802 40.772V11.4754H147.475V41.1485C147.475 44.5009 146.811 46.1771 145.554 47.3917C144.707 48.1331 143.721 48.6976 142.655 49.0521C141.589 49.4066 140.463 49.5441 139.343 49.4565C137.886 49.4671 136.43 49.3534 134.992 49.1164" fill="#535D62"/>
<path d="M117.023 15.3621H117.204C118.08 13.8725 119.342 12.6504 120.855 11.8266C122.369 11.0029 124.077 10.6085 125.796 10.6858C131.838 10.6858 135.802 15.1435 135.802 21.3867V40.0432H128.117V22.5041C128.117 19.4433 126.304 17.2569 123.077 17.2569C119.851 17.2569 117.204 19.9413 117.204 23.8402V40.0432H109.519V11.4754H117.023V15.3621Z" fill="#535D62"/>
<path d="M52.5783 25.7836C52.5783 20.2206 49.9198 16.431 45.2311 16.431C40.5424 16.431 37.8839 20.2206 37.8839 25.7836C37.8839 31.3465 40.482 35.0876 45.2311 35.0876C49.9802 35.0876 52.5783 31.3587 52.5783 25.7836ZM30.0775 25.7836C30.0181 23.7733 30.3704 21.7723 31.1126 19.9046C31.8549 18.037 32.9712 16.3427 34.3922 14.9269C35.8133 13.5111 37.5087 12.404 39.3733 11.6744C41.2378 10.9449 43.2317 10.6084 45.2311 10.6858C47.2295 10.6101 49.222 10.9478 51.0852 11.6782C52.9483 12.4085 54.6423 13.5158 56.062 14.9314C57.4817 16.3471 58.5969 18.0408 59.3384 19.9076C60.0799 21.7744 60.4319 23.7744 60.3726 25.7836C60.4319 27.7928 60.0799 29.7928 59.3384 31.6596C58.5969 33.5263 57.4817 35.2201 56.062 36.6357C54.6423 38.0513 52.9483 39.1587 51.0852 39.889C49.222 40.6193 47.2295 40.9571 45.2311 40.8813C43.2317 40.9588 41.2378 40.6223 39.3733 39.8927C37.5087 39.1632 35.8133 38.0561 34.3922 36.6403C32.9712 35.2245 31.8549 33.5302 31.1126 31.6625C30.3704 29.7949 30.0181 27.7938 30.0775 25.7836Z" fill="#535D62"/>
<path d="M70.1608 16.0059H70.3299C72.0942 12.775 74.064 11.1474 77.4596 11.1474C78.0688 11.1131 78.679 11.1913 79.2601 11.3782V17.9979H79.1031C74.064 17.4999 70.4508 20.1113 70.4508 26.1358V40.0432H62.7652V11.4754H70.1608V16.0059Z" fill="#535D62"/>
<path d="M361.366 21.5671C358.846 20.5289 356.705 22.5419 355.785 25.0612C355.107 27.1632 354.684 29.3395 354.525 31.5432C354.181 31.2414 353.931 30.8455 353.807 30.4038C353.102 28.1503 352.61 24.251 352.182 23.2888C351.565 21.8962 349.385 22.3393 348.402 22.4786C346.724 22.7613 345.072 23.1848 343.464 23.7446C343.225 23.8712 342.645 25.2385 342.96 25.1119C343.275 24.9853 343.792 24.808 344.22 24.6688C344.148 27.0295 344.211 29.3924 344.409 31.7458C344.61 32.5687 346.198 33.822 346.11 32.4168C345.883 29.2391 345.832 25.8968 345.782 24.213C346.651 23.9725 347.42 23.7952 347.836 23.7193C348.743 23.5547 350.355 23.2129 350.695 24.289C351.527 27.2388 351.678 30.3658 352.61 31.7838C353.027 32.378 353.624 32.8218 354.311 33.0498C354.127 35.6502 354.127 38.2606 354.311 40.861C354.462 41.6206 356.264 43.1145 356.125 41.8992C355.869 39.0414 355.785 36.1708 355.873 33.303C356.788 33.2908 357.691 33.0915 358.528 32.7171C359.364 32.3428 360.115 31.8012 360.736 31.1254C363.47 28.3529 363.961 22.5925 361.29 21.4658L361.366 21.5671ZM359.262 30.8722C358.304 31.6116 357.132 32.0161 355.923 32.0243C356.112 28.3402 356.705 24.5675 358.103 23.1622C359.501 21.757 361.126 23.0863 361.328 25.2512C361.447 26.2948 361.322 27.3519 360.963 28.3386C360.605 29.3253 360.022 30.2145 359.262 30.9355V30.8722ZM330.072 22.276C329.883 21.4405 328.283 20.1998 328.384 21.5924C328.498 23.2002 328.561 24.846 328.611 26.3019C326.885 26.3425 325.168 26.5546 323.484 26.9349C323.484 26.15 323.484 25.4917 323.484 25.0233C323.486 24.1761 323.428 23.3298 323.307 22.4913C323.118 21.6683 321.518 20.415 321.619 21.8203C321.745 23.7193 321.821 25.6183 321.871 27.3147C321.279 27.4793 320.687 27.6692 320.069 27.8971C319.049 28.2551 318.051 28.6779 317.084 29.1631C316.468 28.7517 315.798 28.4279 315.093 28.2009C316.196 27.6384 317.043 26.6738 317.462 25.5044C317.589 25.0681 317.624 24.6099 317.563 24.1593C317.503 23.7088 317.349 23.276 317.111 22.8892C316.874 22.5023 316.558 22.17 316.184 21.9139C315.81 21.6578 315.387 21.4835 314.942 21.4025C313.878 21.2353 312.788 21.3962 311.816 21.864C310.845 22.3319 310.037 23.0847 309.5 24.0231C308.177 26.188 308.24 29.986 306.149 31.3786C305.015 32.1636 304.272 31.0874 304.133 29.6442C303.953 27.3633 304.038 25.0691 304.385 22.8078C304.385 22.5672 304.549 21.681 304.599 21.4151C304.687 20.9087 303.012 21.8076 302.987 22.0608C302.982 22.1113 302.982 22.1622 302.987 22.2127C302.13 28.4035 300.228 30.8216 299.283 31.3786C298.111 32.0876 297.406 31.0874 297.267 29.6442C297.081 27.4393 297.166 25.2198 297.519 23.0356C297.519 22.8078 297.683 21.9089 297.721 21.643C297.821 21.1366 296.158 21.8076 296.121 22.0608C296.083 22.314 296.121 22.1748 296.121 22.2127C296.121 22.2507 295.969 23.4787 295.919 23.8459C295.7 25.597 295.591 27.3602 295.591 29.1251C294.915 30.0733 294.059 30.8778 293.072 31.4926C291.812 32.1003 291.195 31.1761 291.006 29.7328C290.779 28.087 290.855 27.6439 291.233 24.0105C291.233 23.7826 291.396 22.8964 291.447 22.6305C291.535 22.1241 289.859 23.0103 289.822 23.2635C289.83 23.318 289.83 23.3736 289.822 23.4281C289.822 23.4281 289.683 24.4789 289.645 24.8334C289.607 25.1879 289.544 25.6183 289.494 26.0108C288.424 25.9352 287.351 25.9352 286.282 26.0108C286.282 25.6056 286.282 25.2638 286.282 24.9853C286.284 24.1381 286.226 23.2918 286.105 22.4533C285.916 21.6304 284.316 20.377 284.417 21.7823C284.518 23.1876 284.593 24.7827 284.631 26.1627C283.617 26.3222 282.618 26.5678 281.645 26.897C281.645 25.8335 281.645 24.8334 281.645 24.1117C281.643 23.7969 281.609 23.483 281.545 23.1749C281.192 21.6177 280.209 20.1618 278.005 21.3772C277.529 21.6619 277.07 21.9747 276.631 22.314V23.58C276.833 23.4028 277.778 22.7318 277.967 22.6305C279.151 21.9595 279.844 22.9217 279.982 24.3649C280.084 25.4252 280.109 26.4914 280.058 27.5553C279.299 27.9194 278.605 28.4071 278.005 28.9985C277.412 29.6062 277.362 31.4039 277.614 31.1634C278.302 30.4795 279.083 29.8957 279.932 29.429C279.932 30.1379 279.806 30.9102 279.705 31.8217C279.705 32.0496 279.542 32.9358 279.504 33.2017C279.403 33.7081 281.091 32.8219 281.116 32.5687C281.142 32.3155 281.116 32.4421 281.116 32.4041C281.116 32.3661 281.255 31.3533 281.305 30.9988C281.381 30.3785 281.456 29.5429 281.519 28.6694C282.54 28.2536 283.588 27.9109 284.656 27.6439C284.656 28.7707 284.656 29.7202 284.732 30.3278C284.736 31.1748 284.795 32.0206 284.908 32.8599C285.11 33.6828 286.697 34.9361 286.596 33.5308C286.445 31.366 286.37 29.1125 286.319 27.3654C287.342 27.1709 288.378 27.0566 289.418 27.0236C289.362 27.9764 289.362 28.9319 289.418 29.8847C289.435 30.2251 289.477 30.5637 289.544 30.8975C289.897 32.4421 290.804 33.822 293.084 32.6953C294.01 32.1005 294.853 31.3853 295.591 30.5684C295.584 30.6653 295.584 30.7626 295.591 30.8596C295.944 32.4168 296.939 33.9233 299.132 32.67C300.691 31.6161 301.828 30.042 302.344 28.2263C302.344 28.8466 302.344 29.429 302.344 29.9227C302.353 30.2372 302.386 30.5505 302.445 30.8596C302.798 32.4168 303.78 33.8727 305.985 32.67L306.501 32.3408C309.537 30.3532 309.575 26.1374 311.629 23.7699C312.586 22.6685 315.484 21.8456 315.648 24.3143C315.774 26.2007 313.896 27.3907 312.422 28.1123C312.284 28.1123 311.755 29.5429 312.133 29.5049C313.273 29.3877 314.421 29.6406 315.408 30.2266C314.096 30.9885 312.833 31.8342 311.629 32.7586C309.744 34.1214 308.144 35.8418 306.917 37.8226C306.687 38.168 306.548 38.5664 306.513 38.9806C306.478 39.3947 306.548 39.811 306.717 40.1905C306.885 40.57 307.147 40.9003 307.477 41.1504C307.808 41.4006 308.196 41.5623 308.605 41.6206C310.535 41.8887 312.501 41.656 314.316 40.9446C316.13 40.2333 317.734 39.067 318.973 37.5567C319.646 36.5793 319.988 35.4108 319.949 34.2233C319.911 33.0358 319.493 31.8921 318.759 30.9608C318.554 30.7011 318.33 30.4558 318.092 30.2266C319.309 29.6255 320.573 29.1258 321.871 28.7327C321.871 29.4796 321.871 30.1126 321.871 30.5684C321.868 31.4156 321.927 32.2619 322.047 33.1004C322.249 33.9233 323.836 35.1767 323.735 33.7714C323.61 31.8977 323.534 29.9734 323.484 28.3402C325.165 27.9347 326.883 27.7055 328.611 27.6566C328.611 28.7833 328.674 29.7328 328.687 30.3405C328.69 31.1875 328.749 32.0333 328.863 32.8725C329.064 33.7081 330.652 34.9488 330.551 33.5562C330.324 30.1379 330.261 26.5425 330.211 24.9979C330.212 24.176 330.153 23.3552 330.035 22.5419L330.072 22.276ZM316.807 37.1643C315.702 38.2387 314.366 39.0422 312.902 39.5122C311.438 39.9821 309.885 40.1058 308.366 39.8735C306.375 39.3545 309.626 36.1388 310.117 35.6577C311.663 34.2598 313.319 32.9897 315.068 31.8597C315.572 31.5305 316.088 31.214 316.605 30.9229C316.869 31.1546 317.121 31.3997 317.361 31.6572C318.86 33.3156 318.104 35.7464 316.794 37.1516L316.807 37.1643ZM273.646 32.4674C273.137 32.5631 272.613 32.5282 272.121 32.3661C271.781 32.2298 271.478 32.0126 271.239 31.7331C271.034 31.4783 270.88 31.186 270.786 30.8722C270.093 28.6314 269.602 24.7321 269.161 23.7573C269.054 23.4021 268.843 23.088 268.554 22.8569C268.265 22.6259 267.913 22.4888 267.545 22.4641C267.177 22.4393 266.81 22.528 266.493 22.7184C266.176 22.9087 265.924 23.1916 265.772 23.5294C265.14 24.5217 264.596 25.5681 264.147 26.6564C264.147 26.6564 263.983 24.3649 263.958 23.1116C263.972 22.7784 263.883 22.449 263.704 22.1684C263.524 21.8878 263.263 21.6696 262.956 21.5436C262.649 21.4176 262.31 21.39 261.987 21.4644C261.663 21.5388 261.37 21.7117 261.148 21.9595C260.317 22.9218 259.668 24.0288 259.234 25.2258C259.181 24.5649 259.015 23.918 258.742 23.3142C258.364 22.6938 257.482 22.0481 257.646 22.8837C257.646 23.3015 257.772 26.15 257.835 28.5808C256.084 31.7711 251.876 33.8473 250.881 30.7836C252.326 29.6448 253.599 28.3016 254.66 26.7957C256.626 23.9218 255.92 22.2381 254.875 22.0735C250.856 21.4784 248.576 27.4287 249.054 30.7836C248.81 31.0131 248.539 31.2128 248.248 31.3786C246.988 32.037 246.371 31.0748 246.232 29.6315C246.107 27.1386 246.242 24.6393 246.635 22.1748C246.635 21.9469 246.799 21.0607 246.85 20.7948C246.938 20.2884 245.262 21.1746 245.237 21.4405C245.23 21.5374 245.23 21.6347 245.237 21.7316C244.38 21.6467 243.515 21.7499 242.701 22.0341C241.888 22.3182 241.145 22.7766 240.525 23.3775C239.55 24.3181 238.8 25.4687 238.331 26.7427C237.862 28.0167 237.686 29.3809 237.817 30.733C237.464 30.9988 236.973 31.328 236.847 31.404C235.587 32.0749 234.97 31.1128 234.831 29.6695C234.65 27.3882 234.739 25.0934 235.096 22.8331C235.096 22.5925 235.259 21.7063 235.297 21.4405C235.398 20.9341 233.71 21.8329 233.685 22.0861C233.006 24.1955 232.094 26.2212 230.963 28.125C229.326 30.7583 225.005 33.5182 223.984 30.3658C225.423 29.2247 226.695 27.8866 227.764 26.3906C229.729 23.5041 229.023 21.8203 227.978 21.6683C223.984 21.0733 221.679 26.9349 222.145 30.3025C221.376 30.7583 220.432 31.1761 220.306 30.4418C220.243 30.1506 220.217 29.8468 220.18 29.5556C220.187 29.4713 220.187 29.3866 220.18 29.3024C219.562 27.9098 217.925 28.2643 217.055 28.2769L215.921 28.3782C215.821 25.1878 216.312 8.83102 216.274 7.88152C216.236 6.93201 214.271 9.07156 214.259 9.51467V9.97043C212.525 17.2055 209.857 24.1814 206.322 30.7203C205.378 31.1171 204.461 31.5738 203.575 32.0876C200.791 33.6828 198.045 37.4175 200.249 39.5191C200.858 39.9863 201.555 40.3239 202.298 40.5111C203.041 40.6983 203.815 40.7312 204.571 40.6078C204.848 40.6078 204.306 39.8229 203.928 39.8102C201.408 39.7216 200.149 37.9492 202.177 35.5944C204.276 33.5487 206.815 32.0154 209.597 31.1128C209.597 31.1128 210.555 30.7709 210.857 30.6823C211.159 30.5937 212.117 30.3532 212.117 30.3532C213.77 29.9456 215.457 29.6913 217.156 29.5936C217.975 29.5936 218.718 29.6948 218.857 30.4038C218.995 31.1128 218.857 31.6698 218.958 32.0243C219.474 33.1004 221.477 32.0243 222.548 31.3786V31.5179C223.946 35.5185 228.847 32.8599 230.775 30.1126C231.86 28.6145 232.737 26.9747 233.382 25.2385C233.239 26.7997 233.184 28.3679 233.219 29.9354C233.231 30.2503 233.269 30.5636 233.332 30.8722C233.685 32.4294 234.592 33.8853 236.872 32.6826C237.061 32.5687 237.855 32.0496 238.132 31.7964C238.331 32.2713 238.675 32.6703 239.114 32.9358C241.306 34.2018 243.511 32.4674 244.595 30.062C244.595 30.062 244.595 29.948 244.595 29.8974C244.6 30.2128 244.638 30.5268 244.708 30.8342C245.061 32.3914 245.968 33.8473 248.235 32.6446C248.588 32.4547 249.042 32.1509 249.357 31.9357C250.831 36.1515 256.336 33.0244 257.86 30.062C257.86 30.9608 257.86 31.6825 257.949 32.0116C258.074 33.2776 259.826 34.0752 259.737 32.7586C259.662 31.6572 259.536 31.1507 259.473 29.2517C259.481 27.2181 260.086 25.2321 261.211 23.542C261.728 22.8077 262.471 22.9977 262.396 23.8206C262.382 25.8892 262.495 27.9568 262.736 30.0113C262.988 31.0241 264.185 31.5179 264.197 30.5557C264.225 28.3984 264.916 26.3026 266.175 24.5548C266.654 23.9345 267.347 23.6813 267.649 24.7574C268.468 27.7072 268.632 30.8342 269.564 32.2648C269.966 32.8577 270.55 33.3023 271.227 33.5308C271.47 33.6125 271.726 33.6511 271.983 33.6448C272.358 33.6661 272.731 33.5875 273.066 33.4169C273.683 33.0371 274.061 32.3281 273.583 32.4674H273.646ZM214.158 28.5428C213.301 28.6694 212.331 28.8593 211.122 29.1505L209.862 29.4796L208.602 29.8468L208.337 29.9354C210.95 24.706 212.93 19.1805 214.233 13.4773C214.233 18.6426 214.12 26.0361 214.158 28.5428ZM223.795 28.0364C223.864 26.3191 224.528 24.68 225.672 23.4028C226.655 22.5672 228.116 22.4659 227.801 23.9092C227.076 26.075 225.676 27.9483 223.808 29.2517C223.78 28.8302 223.78 28.4073 223.808 27.9857L223.795 28.0364ZM242.226 31.6445C240.74 32.9991 239.417 31.3913 239.417 29.2264C239.392 28.196 239.597 27.1731 240.018 26.2331C240.439 25.2931 241.064 24.46 241.848 23.7952C242.784 23.1492 243.918 22.8576 245.048 22.9723C244.532 26.6184 243.662 30.3152 242.226 31.6192V31.6445ZM250.705 28.3782C250.777 26.6593 251.445 25.0201 252.594 23.7446C253.564 22.909 255.026 22.7951 254.711 24.251C253.982 26.4083 252.588 28.2755 250.73 29.5809C250.704 29.1804 250.704 28.7787 250.73 28.3782H250.705ZM399.513 27.8844C397.85 31.2267 393.44 33.4929 392.433 30.3405C393.871 29.1993 395.143 27.8612 396.212 26.3652C398.177 23.4787 397.472 21.7949 396.414 21.643C392.433 21.048 390.115 26.9096 390.593 30.2772C389.812 30.733 388.88 31.1507 388.741 30.4165C388.741 30.1253 388.666 29.8214 388.615 29.5303C388.597 29.4261 388.568 29.3242 388.527 29.2264C388.111 28.2769 386.877 28.125 385.856 28.1883C385.914 26.0087 385.846 23.8276 385.655 21.6557C385.453 20.8201 383.866 19.5794 383.954 20.972C384.156 23.7573 384.206 26.6817 384.269 28.4921C383.551 28.7327 382.316 29.1884 381.17 29.5556C381.244 27.2244 381.181 24.8909 380.981 22.5672C380.779 21.7443 379.192 20.491 379.28 21.8962C379.494 25.0233 379.557 28.3149 379.608 30.024L379.23 30.1C378.323 30.2772 376.332 30.6697 376.37 29.5429C376.458 26.2893 377 23.6053 375.904 22.1368C375.026 21.2204 373.869 20.6236 372.616 20.4403C372.556 20.1372 372.467 19.8405 372.351 19.5541C372.125 19.187 371.192 20.4656 371.192 20.4656C370.272 20.4794 369.364 20.6832 368.526 21.0643C367.687 21.4454 366.935 21.9958 366.317 22.6811C363.583 25.4537 363.092 31.2141 365.763 32.3408C368.282 33.3789 370.802 31.6065 371.81 29.3024C372.696 26.9327 373.041 24.3927 372.817 21.8709C373.8 22.0355 374.594 22.4026 374.732 23.2888C375.123 25.8209 374.329 29.6189 374.732 30.5937C375.35 31.9863 377.731 31.5685 378.65 31.4293C378.813 31.4057 378.973 31.3676 379.129 31.3153C379.507 31.214 380.011 31.0495 380.553 30.8596C382.241 30.3025 383.387 29.9227 384.055 29.7961C384.723 29.6695 386.575 29.3657 386.978 30.1633C387.28 30.7583 386.978 31.6698 387.192 32.0116C387.721 33.0877 389.787 32.0116 390.795 31.366V31.5052C392.382 36.0629 398.643 32.0623 399.613 28.9732C399.676 28.758 399.525 27.7072 399.425 27.9224L399.513 27.8844ZM368.937 30.7203C367.426 32.1762 365.914 30.7963 365.712 28.6314C365.606 27.5868 365.744 26.5318 366.113 25.5497C366.483 24.5676 367.074 23.6852 367.841 22.9723C368.797 22.2308 369.972 21.8299 371.18 21.8329C371.406 25.9728 370.651 29.1631 369 30.695L368.937 30.7203ZM392.181 28.0364C392.231 26.3047 392.886 24.6462 394.033 23.3521C395.003 22.5166 396.477 22.4153 396.149 23.8585C395.429 26.0234 394.032 27.897 392.168 29.2011C392.133 28.7798 392.133 28.3564 392.168 27.9351L392.181 28.0364ZM333.827 26.5298C333.827 25.9221 333.827 25.4031 333.827 25.0106C333.829 24.1634 333.771 23.3171 333.65 22.4786C333.461 21.6557 331.861 20.4023 331.962 21.8076C332.201 25.2132 332.252 28.8213 332.302 30.3532C332.306 31.2001 332.365 32.0459 332.479 32.8852V32.9865C332.498 33.1218 332.555 33.2489 332.642 33.3536C332.72 33.4523 332.804 33.5454 332.894 33.6321C333.103 33.8902 333.384 34.0797 333.701 34.1765C336.031 35.2146 339.861 33.4169 340 30.9102C340.189 27.6819 336.296 26.859 333.839 26.5298H333.827ZM334.078 32.67C333.965 30.8849 333.902 29.1125 333.864 27.6059C335.502 27.8211 337.745 28.2769 338.236 29.9227C338.765 31.7584 335.641 33.4549 334.078 32.632" fill="#00B1AA"/>
</svg>
