<svg width="133" height="17" viewBox="0 0 133 17" fill="none" xmlns="http://www.w3.org/2000/svg">
<path d="M28.7995 7.47431H33.0022C32.9298 6.26161 32.1335 5.43292 30.9913 5.43292C29.6642 5.43292 29.0207 6.2414 28.7995 7.47431ZM26.2899 8.48894C26.2899 5.6593 28.1882 3.48451 30.9551 3.48451C33.9955 3.48451 35.6203 5.82099 35.6203 9.21253H28.7593C28.9483 10.6799 29.7567 11.5854 31.1723 11.5854C31.5625 11.6219 31.9537 11.527 32.2842 11.3155C32.6148 11.104 32.866 10.7879 32.9982 10.4171H35.4675C35.1176 12.1069 33.6255 13.5338 31.1884 13.5338C28.0595 13.5338 26.2899 11.3186 26.2899 8.48894Z" fill="#535D62"/>
<path d="M52.5678 7.47431H56.7705C56.6981 6.26161 55.9058 5.43292 54.7597 5.43292C53.4325 5.43292 52.789 6.2414 52.5678 7.47431ZM50.0583 8.48894C50.0583 5.6593 51.9565 3.48451 54.7275 3.48451C57.7679 3.48451 59.3886 5.82099 59.3886 9.21253H52.5316C52.7126 10.6799 53.525 11.5854 54.9446 11.5854C55.3349 11.6227 55.7264 11.528 56.0571 11.3164C56.3879 11.1048 56.6389 10.7883 56.7705 10.4171H59.2439C58.894 12.1069 57.3979 13.5338 54.9648 13.5338C51.8318 13.5338 50.0583 11.3267 50.0583 8.48894Z" fill="#535D62"/>
<path d="M6.97365 8.08471C6.97365 6.6901 6.22159 5.50569 4.68127 5.50569C3.38226 5.50569 2.51759 6.50819 2.51759 8.10088C2.51759 9.69357 3.38226 10.6597 4.69736 10.6597C6.30605 10.6597 6.97365 9.49145 6.97365 8.08471ZM0.221194 13.5338H2.75085C2.95596 14.124 3.50291 14.5889 4.6853 14.5889C6.13311 14.5889 6.82887 13.9057 6.82887 12.6041V11.5692H6.77257C6.46346 11.9344 6.07587 12.2242 5.63905 12.4167C5.20222 12.6093 4.72758 12.6996 4.25095 12.6809C2.10336 12.6809 0 11.0114 0 8.13726C0 5.26315 1.72934 3.48451 4.17454 3.48451C4.68857 3.45741 5.2013 3.55835 5.66717 3.77838C6.13304 3.9984 6.53762 4.33069 6.84496 4.74572H6.88517V3.74726H9.34646V12.5313C9.37992 13.0683 9.29448 13.606 9.09628 14.1058C8.89808 14.6056 8.59206 15.055 8.20027 15.4216C7.39593 16.1654 6.1492 16.4968 4.72149 16.4968C2.08727 16.4968 0.470541 15.3852 0.205107 13.5338" fill="#535D62"/>
<path d="M46.5272 0H49.081V2.26372H46.5272V0ZM44.9185 16.2745V14.4797C45.9521 14.4797 46.5272 14.3665 46.5272 13.4974V3.74726H49.081V13.6227C49.081 14.7384 48.8598 15.2963 48.4415 15.7005C48.1596 15.9473 47.8316 16.1351 47.4767 16.2531C47.1218 16.3711 46.7471 16.4168 46.3744 16.3877C45.8895 16.3912 45.4051 16.3534 44.9266 16.2745" fill="#535D62"/>
<path d="M38.9463 5.04082H39.0066C39.2979 4.54507 39.7179 4.13833 40.2216 3.86417C40.7254 3.59001 41.2938 3.45877 41.866 3.48451C43.8769 3.48451 45.196 4.96805 45.196 7.04582V13.2549H42.6382V7.41772C42.6382 6.39905 42.035 5.67142 40.9612 5.67142C39.8874 5.67142 39.0066 6.56478 39.0066 7.86238V13.2549H36.4488V3.74726H38.9463V5.04082Z" fill="#535D62"/>
<path d="M17.4985 8.50916C17.4985 6.65776 16.6137 5.39654 15.0533 5.39654C13.4928 5.39654 12.6081 6.65776 12.6081 8.50916C12.6081 10.3606 13.4727 11.6056 15.0533 11.6056C16.6338 11.6056 17.4985 10.3646 17.4985 8.50916ZM10.01 8.50916C9.99026 7.84013 10.1075 7.17416 10.3545 6.55259C10.6016 5.93103 10.9731 5.36715 11.446 4.89595C11.9189 4.42476 12.4832 4.05632 13.1037 3.81352C13.7243 3.57071 14.3879 3.45873 15.0533 3.48451C15.7184 3.4593 16.3815 3.5717 17.0016 3.81476C17.6216 4.05782 18.1854 4.42635 18.6579 4.89748C19.1304 5.36861 19.5015 5.9323 19.7483 6.55358C19.9951 7.17486 20.1122 7.84048 20.0925 8.50916C20.1122 9.17783 19.9951 9.84345 19.7483 10.4647C19.5015 11.086 19.1304 11.6497 18.6579 12.1208C18.1854 12.592 17.6216 12.9605 17.0016 13.2035C16.3815 13.4466 15.7184 13.559 15.0533 13.5338C14.3879 13.5596 13.7243 13.4476 13.1037 13.2048C12.4832 12.962 11.9189 12.5936 11.446 12.1224C10.9731 11.6512 10.6016 11.0873 10.3545 10.4657C10.1075 9.84415 9.99026 9.17818 10.01 8.50916Z" fill="#535D62"/>
<path d="M23.3501 5.25506H23.4064C23.9935 4.17979 24.6491 3.63812 25.7792 3.63812C25.9819 3.62669 26.185 3.65272 26.3784 3.71492V5.91801H26.3261C24.6491 5.75227 23.4466 6.62138 23.4466 8.62638V13.2549H20.8888V3.74726H23.3501V5.25506Z" fill="#535D62"/>
<path d="M120.267 7.10586C119.428 6.76036 118.715 7.43029 118.409 8.26875C118.184 8.96829 118.043 9.6926 117.99 10.426C117.875 10.3256 117.792 10.1938 117.751 10.0468C117.516 9.29682 117.353 7.9991 117.21 7.67888C117.005 7.21541 116.279 7.36288 115.952 7.40922C115.394 7.50331 114.844 7.64424 114.309 7.83056C114.229 7.8727 114.036 8.32774 114.141 8.28561C114.246 8.24347 114.418 8.18448 114.56 8.13814C114.536 8.92379 114.557 9.71019 114.623 10.4934C114.69 10.7673 115.219 11.1844 115.189 10.7167C115.114 9.65917 115.097 8.54684 115.08 7.98646C115.37 7.9064 115.625 7.84741 115.764 7.82213C116.066 7.76736 116.602 7.6536 116.715 8.01174C116.992 8.99345 117.043 10.0342 117.353 10.5061C117.492 10.7038 117.69 10.8515 117.919 10.9274C117.857 11.7928 117.857 12.6616 117.919 13.527C117.969 13.7798 118.569 14.277 118.523 13.8725C118.437 12.9215 118.409 11.9661 118.439 11.0117C118.743 11.0076 119.044 10.9413 119.322 10.8167C119.6 10.6921 119.85 10.5119 120.057 10.287C120.967 9.36423 121.13 7.44714 120.242 7.07215L120.267 7.10586ZM119.567 10.2027C119.248 10.4488 118.857 10.5834 118.455 10.5861C118.518 9.36002 118.715 8.10443 119.181 7.63675C119.646 7.16906 120.187 7.61147 120.254 8.33195C120.294 8.67929 120.252 9.03111 120.133 9.35949C120.013 9.68788 119.82 9.98379 119.567 10.2238V10.2027ZM109.852 7.34181C109.789 7.06373 109.257 6.65082 109.29 7.11429C109.328 7.64939 109.349 8.19712 109.366 8.68166C108.791 8.69518 108.22 8.76574 107.659 8.89233C107.659 8.6311 107.659 8.41201 107.659 8.25611C107.66 7.97416 107.641 7.69251 107.6 7.41344C107.538 7.13957 107.005 6.72244 107.039 7.19013C107.081 7.82213 107.106 8.45414 107.123 9.01873C106.925 9.07351 106.728 9.13671 106.523 9.21255C106.183 9.33168 105.851 9.47241 105.529 9.63389C105.324 9.49697 105.101 9.38921 104.867 9.31367C105.234 9.12644 105.516 8.80541 105.655 8.41622C105.697 8.27105 105.709 8.11853 105.689 7.96858C105.669 7.81864 105.618 7.67461 105.539 7.54586C105.459 7.41712 105.354 7.30653 105.23 7.22129C105.105 7.13605 104.965 7.07806 104.817 7.05109C104.462 6.99543 104.1 7.04898 103.776 7.20469C103.453 7.36039 103.184 7.61093 103.005 7.92326C102.565 8.64374 102.586 9.90776 101.89 10.3712C101.513 10.6325 101.265 10.2743 101.219 9.79399C101.159 9.03488 101.187 8.27136 101.303 7.51877C101.303 7.43872 101.357 7.14378 101.374 7.0553C101.404 6.88676 100.846 7.18591 100.838 7.27018C100.836 7.287 100.836 7.30393 100.838 7.32074C100.552 9.38108 99.9194 10.1858 99.6049 10.3712C99.215 10.6072 98.9802 10.2743 98.9341 9.79399C98.8723 9.06018 98.9004 8.32152 99.018 7.59461C99.018 7.51877 99.0725 7.21962 99.085 7.13114C99.1186 6.9626 98.5651 7.18591 98.5526 7.27018C98.54 7.35445 98.5526 7.3081 98.5526 7.32074C98.5526 7.33338 98.5023 7.74208 98.4855 7.86427C98.4126 8.44706 98.3762 9.03387 98.3765 9.62125C98.1513 9.93679 97.8663 10.2045 97.5379 10.4091C97.1187 10.6114 96.9132 10.3038 96.8503 9.82349C96.7748 9.27575 96.8 9.12828 96.9258 7.91904C96.9258 7.8432 96.9803 7.54827 96.9971 7.45979C97.0264 7.29125 96.4688 7.58619 96.4562 7.67045C96.459 7.6886 96.459 7.70708 96.4562 7.72523C96.4562 7.72523 96.4101 8.07494 96.3975 8.19291C96.3849 8.31089 96.364 8.45414 96.3472 8.58476C95.9912 8.55961 95.634 8.55961 95.278 8.58476C95.278 8.44993 95.278 8.33616 95.278 8.24347C95.279 7.96151 95.2594 7.67986 95.2193 7.4008C95.1565 7.12693 94.624 6.7098 94.6575 7.17749C94.6911 7.64517 94.7162 8.17606 94.7288 8.63531C94.3913 8.6884 94.0589 8.77015 93.7351 8.87969C93.7351 8.52577 93.7351 8.19291 93.7351 7.95275C93.7343 7.84795 93.7231 7.7435 93.7016 7.64096C93.5842 7.12272 93.2571 6.63817 92.5234 7.04266C92.3651 7.13741 92.2125 7.24153 92.0664 7.35445V7.77579C92.1335 7.7168 92.448 7.49349 92.5108 7.45979C92.905 7.23648 93.1356 7.55669 93.1817 8.03702C93.2153 8.38988 93.2238 8.74472 93.2068 9.09879C92.9543 9.21998 92.7233 9.38227 92.5234 9.57911C92.3264 9.78136 92.3096 10.3797 92.3934 10.2996C92.6226 10.072 92.8822 9.87769 93.1649 9.72237C93.1649 9.95832 93.123 10.2153 93.0894 10.5187C93.0894 10.5945 93.0349 10.8895 93.0224 10.978C92.9888 11.1465 93.5506 10.8516 93.559 10.7673C93.5674 10.683 93.559 10.7252 93.559 10.7125C93.559 10.6999 93.6051 10.3628 93.6219 10.2448C93.6471 10.0384 93.6722 9.76029 93.6932 9.46956C94.0327 9.33118 94.3816 9.21713 94.7372 9.12828C94.7372 9.50327 94.7372 9.81927 94.7623 10.0215C94.7636 10.3034 94.7833 10.5849 94.821 10.8642C94.8881 11.1381 95.4164 11.5552 95.3829 11.0875C95.3325 10.367 95.3074 9.61703 95.2906 9.03559C95.631 8.97085 95.9758 8.93281 96.322 8.92182C96.3031 9.23895 96.3031 9.55693 96.322 9.87405C96.3274 9.98732 96.3414 10.1 96.364 10.2111C96.4814 10.7252 96.7832 11.1844 97.5421 10.8094C97.8501 10.6115 98.1306 10.3734 98.3765 10.1016C98.3741 10.1338 98.3741 10.1662 98.3765 10.1985C98.4939 10.7167 98.8251 11.2181 99.5546 10.801C100.073 10.4502 100.452 9.9264 100.624 9.3221C100.624 9.52855 100.624 9.72237 100.624 9.88669C100.627 9.99135 100.638 10.0956 100.657 10.1985C100.775 10.7167 101.102 11.2013 101.835 10.801L102.007 10.6914C103.018 10.0299 103.03 8.62689 103.714 7.83899C104.032 7.47242 104.997 7.19855 105.051 8.02016C105.093 8.64796 104.469 9.04401 103.978 9.28418C103.932 9.28418 103.756 9.76029 103.882 9.74765C104.261 9.70864 104.643 9.7928 104.972 9.98781C104.535 10.2414 104.115 10.5229 103.714 10.8305C103.087 11.2841 102.554 11.8566 102.146 12.5158C102.069 12.6308 102.023 12.7634 102.011 12.9012C102 13.039 102.023 13.1776 102.079 13.3039C102.135 13.4302 102.222 13.5401 102.332 13.6234C102.442 13.7066 102.571 13.7604 102.708 13.7799C103.35 13.8691 104.004 13.7916 104.608 13.5549C105.212 13.3181 105.746 12.93 106.158 12.4274C106.382 12.1021 106.496 11.7132 106.483 11.318C106.47 10.9227 106.331 10.5421 106.087 10.2322C106.018 10.1458 105.944 10.0641 105.865 9.98781C106.27 9.78776 106.69 9.62148 107.123 9.49063C107.123 9.73922 107.123 9.94989 107.123 10.1016C107.122 10.3835 107.141 10.6652 107.181 10.9442C107.248 11.2181 107.777 11.6352 107.743 11.1676C107.701 10.544 107.676 9.90354 107.659 9.36002C108.219 9.22505 108.791 9.1488 109.366 9.13249C109.366 9.50748 109.387 9.82349 109.391 10.0257C109.392 10.3076 109.411 10.5891 109.449 10.8684C109.517 11.1465 110.045 11.5594 110.011 11.0959C109.936 9.95832 109.915 8.76172 109.898 8.24768C109.898 7.97415 109.879 7.70096 109.839 7.43029L109.852 7.34181ZM105.437 12.2967C105.07 12.6543 104.625 12.9217 104.138 13.0781C103.65 13.2345 103.134 13.2757 102.628 13.1984C101.965 13.0257 103.047 11.9555 103.211 11.7953C103.725 11.3301 104.276 10.9074 104.858 10.5313C105.026 10.4218 105.198 10.3165 105.37 10.2195C105.458 10.2967 105.542 10.3782 105.622 10.4639C106.12 11.0159 105.869 11.8248 105.433 12.2925L105.437 12.2967ZM91.0727 10.7336C90.9035 10.7654 90.729 10.7538 90.5654 10.6999C90.4521 10.6545 90.3514 10.5822 90.2719 10.4892C90.2036 10.4044 90.1524 10.3071 90.121 10.2027C89.8904 9.45692 89.7269 8.15921 89.5801 7.83478C89.5447 7.71658 89.4742 7.61205 89.3781 7.53514C89.282 7.45824 89.1649 7.41263 89.0423 7.40439C88.9198 7.39614 88.7976 7.42567 88.6922 7.48902C88.5868 7.55237 88.5031 7.64653 88.4523 7.75893C88.2419 8.08917 88.0609 8.43743 87.9114 8.79964C87.9114 8.79964 87.8569 8.03702 87.8485 7.61989C87.8531 7.509 87.8236 7.39939 87.7639 7.306C87.7042 7.21261 87.6173 7.13999 87.5151 7.09806C87.4128 7.05613 87.3002 7.04692 87.1925 7.07169C87.0849 7.09646 86.9875 7.15401 86.9135 7.23647C86.6369 7.55672 86.4209 7.92514 86.2763 8.32353C86.2588 8.10355 86.2034 7.88828 86.1127 7.6873C85.987 7.48085 85.6935 7.26597 85.748 7.54405C85.748 7.68309 85.7899 8.6311 85.8109 9.44007C85.2281 10.5018 83.8277 11.1928 83.4965 10.1732C83.9774 9.79421 84.4011 9.34715 84.7543 8.84598C85.4084 7.88955 85.1736 7.32917 84.8256 7.2744C83.4881 7.07637 82.7292 9.05665 82.8885 10.1732C82.8071 10.2496 82.7171 10.316 82.6202 10.3712C82.2009 10.5903 81.9955 10.2701 81.9494 9.78978C81.9076 8.96012 81.9525 8.12834 82.0835 7.3081C82.0835 7.23226 82.138 6.93732 82.1548 6.84884C82.1841 6.68031 81.6265 6.97525 81.6181 7.06373C81.6158 7.09599 81.6158 7.12837 81.6181 7.16063C81.3329 7.13236 81.0449 7.1667 80.7742 7.26128C80.5034 7.35585 80.2564 7.5084 80.05 7.70837C79.7255 8.02144 79.4758 8.40436 79.3196 8.82835C79.1635 9.25234 79.105 9.70638 79.1486 10.1563C79.0312 10.2448 78.8677 10.3544 78.8258 10.3797C78.4065 10.603 78.2011 10.2827 78.1549 9.80242C78.0948 9.04318 78.1244 8.27946 78.243 7.5272C78.243 7.44714 78.2975 7.15221 78.3101 7.06373C78.3436 6.89519 77.7818 7.19434 77.7734 7.27861C77.5477 7.98062 77.2439 8.6548 76.8678 9.28839C76.3227 10.1648 74.8846 11.0833 74.545 10.0342C75.0237 9.65437 75.4471 9.20904 75.8028 8.71116C76.4569 7.75051 76.2221 7.19013 75.8741 7.13957C74.545 6.94154 73.7777 8.89233 73.9329 10.0131C73.6771 10.1648 73.3626 10.3038 73.3207 10.0594C73.2997 9.96253 73.2914 9.86141 73.2788 9.7645C73.2812 9.73646 73.2812 9.70827 73.2788 9.68023C73.0733 9.21676 72.5283 9.33474 72.239 9.33895L71.8616 9.37266C71.8281 8.31088 71.9916 2.8672 71.979 2.5512C71.9665 2.2352 71.3124 2.94726 71.3082 3.09472V3.24641C70.7314 5.6543 69.8434 7.97594 68.6668 10.1521C68.3528 10.2842 68.0475 10.4362 67.7528 10.6072C66.8262 11.1381 65.9122 12.381 66.6459 13.0804C66.8485 13.2359 67.0805 13.3483 67.3278 13.4106C67.575 13.4729 67.8324 13.4838 68.084 13.4428C68.1762 13.4428 67.9959 13.1816 67.8702 13.1773C67.0316 13.1478 66.6123 12.558 67.2874 11.7743C67.9859 11.0935 68.8308 10.5831 69.7569 10.2827C69.7569 10.2827 70.0755 10.169 70.1762 10.1395C70.2768 10.11 70.5954 10.0299 70.5954 10.0299C71.1456 9.89429 71.707 9.80967 72.2725 9.77714C72.5451 9.77714 72.7924 9.81085 72.8385 10.0468C72.8847 10.2827 72.8386 10.4681 72.8721 10.5861C73.044 10.9442 73.7106 10.5861 74.067 10.3712V10.4176C74.5324 11.749 76.1634 10.8642 76.8049 9.94989C77.1662 9.45131 77.4582 8.90557 77.6728 8.32774C77.625 8.84733 77.6068 9.36923 77.6183 9.8909C77.6223 9.9957 77.6349 10.1 77.656 10.2027C77.7734 10.7209 78.0753 11.2055 78.8342 10.8052C78.897 10.7673 79.1612 10.5945 79.2534 10.5103C79.3197 10.6683 79.4342 10.8011 79.5805 10.8895C80.31 11.3108 81.0437 10.7336 81.4043 9.93304C81.4043 9.93304 81.4043 9.89512 81.4043 9.87826C81.406 9.98324 81.4186 10.0877 81.442 10.1901C81.5594 10.7083 81.8613 11.1928 82.616 10.7926C82.7334 10.7294 82.8843 10.6282 82.9892 10.5566C83.4797 11.9597 85.3119 10.919 85.8192 9.93304C85.8192 10.2322 85.8192 10.4723 85.8486 10.5819C85.8905 11.0032 86.4733 11.2687 86.444 10.8305C86.4188 10.4639 86.3769 10.2954 86.3559 9.66338C86.3587 8.98658 86.5599 8.32562 86.9345 7.76315C87.1064 7.51877 87.3538 7.58197 87.3286 7.85584C87.324 8.54431 87.3618 9.23241 87.4418 9.91618C87.5257 10.2533 87.924 10.4176 87.9282 10.0974C87.9376 9.37939 88.1675 8.68187 88.5864 8.10022C88.7458 7.89376 88.9764 7.8095 89.077 8.16763C89.3495 9.14935 89.404 10.1901 89.7143 10.6662C89.8481 10.8635 90.0425 11.0114 90.2677 11.0875C90.3488 11.1147 90.4339 11.1275 90.5193 11.1254C90.644 11.1325 90.7684 11.1064 90.8799 11.0496C91.0853 10.9232 91.2111 10.6872 91.0518 10.7336H91.0727ZM71.2747 9.42743C70.9896 9.46957 70.6667 9.53276 70.2642 9.62967L69.8449 9.73922L69.4257 9.86141L69.3376 9.8909C70.2073 8.15052 70.866 6.31158 71.2998 4.41351C71.2998 6.13257 71.2621 8.59318 71.2747 9.42743ZM74.4821 9.2589C74.505 8.68738 74.726 8.14188 75.1068 7.7168C75.4339 7.43872 75.9202 7.40501 75.8154 7.88533C75.574 8.60613 75.1079 9.2296 74.4863 9.66338C74.477 9.52309 74.477 9.38233 74.4863 9.24204L74.4821 9.2589ZM80.6161 10.4597C80.1213 10.9105 79.6811 10.3754 79.6811 9.65495C79.6728 9.31202 79.7412 8.97158 79.8812 8.65874C80.0213 8.34591 80.2294 8.06865 80.4903 7.84742C80.8018 7.63239 81.1792 7.53535 81.5552 7.57355C81.3833 8.787 81.094 10.0173 80.6161 10.4513V10.4597ZM83.4378 9.37266C83.4618 8.8006 83.6843 8.25505 84.0667 7.83056C84.3895 7.55248 84.8759 7.51456 84.7711 7.9991C84.5286 8.71706 84.0645 9.3385 83.4462 9.77293C83.4374 9.63965 83.4374 9.50594 83.4462 9.37266H83.4378ZM132.962 9.20833C132.409 10.3207 130.941 11.0749 130.606 10.0257C131.085 9.64594 131.508 9.20061 131.864 8.70273C132.518 7.74208 132.283 7.1817 131.931 7.13114C130.606 6.93311 129.835 8.8839 129.994 10.0047C129.734 10.1563 129.424 10.2954 129.378 10.051C129.378 9.9541 129.352 9.85298 129.336 9.75607C129.329 9.7214 129.32 9.68749 129.306 9.65495C129.168 9.33895 128.757 9.28839 128.417 9.30946C128.436 8.58406 128.414 7.85817 128.35 7.13535C128.283 6.85727 127.755 6.44436 127.784 6.90783C127.851 7.83477 127.868 8.80806 127.889 9.41058C127.65 9.49063 127.239 9.64231 126.858 9.7645C126.882 8.98867 126.861 8.21206 126.795 7.43872C126.728 7.16485 126.199 6.74772 126.229 7.21541C126.3 8.25611 126.321 9.35159 126.338 9.9204L126.212 9.94568C125.91 10.0047 125.248 10.1353 125.26 9.76029C125.29 8.67745 125.47 7.78421 125.105 7.29546C124.813 6.99048 124.428 6.79187 124.011 6.73087C123.991 6.63 123.961 6.53125 123.923 6.43593C123.847 6.31375 123.537 6.7393 123.537 6.7393C123.231 6.74387 122.929 6.81169 122.65 6.93853C122.37 7.06538 122.12 7.24854 121.914 7.47664C121.005 8.39937 120.841 10.3165 121.73 10.6914C122.569 11.0369 123.407 10.4471 123.742 9.68023C124.038 8.89157 124.152 8.04625 124.078 7.20698C124.405 7.26175 124.669 7.38394 124.715 7.67888C124.845 8.52156 124.581 9.78557 124.715 10.11C124.921 10.5735 125.713 10.4344 126.019 10.3881C126.073 10.3802 126.127 10.3675 126.178 10.3502C126.304 10.3165 126.472 10.2617 126.652 10.1985C127.214 10.0131 127.596 9.88669 127.818 9.84456C128.04 9.80242 128.656 9.7013 128.791 9.96674C128.891 10.1648 128.791 10.4681 128.862 10.5819C129.038 10.94 129.726 10.5819 130.061 10.367V10.4134C130.589 11.9302 132.673 10.5987 132.996 9.57069C133.017 9.49906 132.966 9.14935 132.933 9.22098L132.962 9.20833ZM122.787 10.1521C122.283 10.6367 121.78 10.1774 121.713 9.45693C121.678 9.10929 121.724 8.75817 121.847 8.43131C121.97 8.10445 122.166 7.8108 122.422 7.57355C122.74 7.32675 123.131 7.19334 123.533 7.19434C123.608 8.57211 123.357 9.63389 122.808 10.1437L122.787 10.1521ZM130.522 9.2589C130.539 8.68259 130.757 8.13063 131.138 7.69995C131.461 7.42186 131.952 7.38816 131.843 7.86848C131.603 8.58897 131.138 9.21252 130.518 9.64653C130.506 9.50632 130.506 9.36539 130.518 9.22519L130.522 9.2589ZM111.101 8.7575C111.101 8.55526 111.101 8.38251 111.101 8.2519C111.102 7.96994 111.083 7.68829 111.043 7.40922C110.98 7.13535 110.447 6.71823 110.481 7.18592C110.561 8.31931 110.577 9.52013 110.594 10.0299C110.595 10.3118 110.615 10.5933 110.653 10.8726V10.9063C110.659 10.9514 110.678 10.9937 110.707 11.0285C110.733 11.0614 110.761 11.0924 110.791 11.1212C110.861 11.2071 110.954 11.2702 111.059 11.3024C111.835 11.6479 113.11 11.0496 113.156 10.2153C113.219 9.14092 111.923 8.86705 111.106 8.7575H111.101ZM111.185 10.801C111.148 10.2069 111.127 9.61703 111.114 9.11564C111.659 9.18727 112.405 9.33895 112.569 9.88669C112.745 10.4976 111.705 11.0622 111.185 10.7884" fill="#00B1AA"/>
</svg>
