<svg width="138" height="48" viewBox="0 0 138 48" fill="none" xmlns="http://www.w3.org/2000/svg">
<path d="M116.102 36.0641C114.66 35.4802 113.434 36.6125 112.907 38.0296C112.52 39.2119 112.278 40.436 112.186 41.6756C111.989 41.5058 111.847 41.2832 111.776 41.0347C111.372 39.7671 111.091 37.5738 110.845 37.0326C110.492 36.2493 109.245 36.4985 108.682 36.5769C107.722 36.7359 106.776 36.9741 105.856 37.289C105.719 37.3602 105.387 38.1293 105.568 38.058C105.748 37.9868 106.044 37.8871 106.289 37.8088C106.247 39.1367 106.283 40.4658 106.397 41.7895C106.512 42.2524 107.421 42.9574 107.37 42.1669C107.24 40.3795 107.212 38.4996 107.183 37.5524C107.68 37.4171 108.12 37.3174 108.358 37.2747C108.877 37.1821 109.8 36.9899 109.995 37.5952C110.471 39.2544 110.557 41.0133 111.091 41.8109C111.329 42.1452 111.671 42.3948 112.064 42.523C111.959 43.9857 111.959 45.454 112.064 46.9167C112.15 47.344 113.181 48.1843 113.102 47.5007C112.956 45.8932 112.908 44.2786 112.958 42.6654C113.482 42.6586 113.999 42.5465 114.477 42.3359C114.956 42.1253 115.386 41.8207 115.741 41.4406C117.306 39.8811 117.587 36.6409 116.058 36.0072L116.102 36.0641ZM114.897 41.2982C114.349 41.714 113.678 41.9416 112.987 41.9462C113.095 39.8739 113.434 37.7518 114.234 36.9614C115.034 36.1709 115.965 36.9187 116.08 38.1364C116.148 38.7234 116.076 39.318 115.871 39.873C115.666 40.4281 115.333 40.9282 114.897 41.3338V41.2982ZM98.1919 36.4629C98.0837 35.9929 97.168 35.295 97.2257 36.0784C97.2906 36.9828 97.3267 37.9085 97.3555 38.7274C96.3679 38.7503 95.3849 38.8695 94.421 39.0835C94.421 38.642 94.421 38.2717 94.421 38.0082C94.4227 37.5317 94.389 37.0556 94.3201 36.584C94.2119 36.1211 93.2963 35.4161 93.354 36.2065C93.426 37.2747 93.4693 38.3429 93.4981 39.2971C93.1593 39.3897 92.8204 39.4965 92.4671 39.6247C91.8828 39.826 91.3121 40.0639 90.7583 40.3368C90.4057 40.1054 90.0223 39.9233 89.6192 39.7956C90.2502 39.4792 90.7351 38.9366 90.9746 38.2788C91.0476 38.0334 91.0674 37.7757 91.0329 37.5222C90.9983 37.2688 90.9102 37.0254 90.7742 36.8078C90.6382 36.5902 90.4574 36.4033 90.2435 36.2592C90.0296 36.1152 89.7874 36.0171 89.5326 35.9716C88.9235 35.8775 88.2997 35.968 87.7437 36.2312C87.1876 36.4943 86.7254 36.9178 86.4179 37.4456C85.6609 38.6633 85.6969 40.7997 84.5001 41.583C83.8512 42.0245 83.4258 41.4192 83.3465 40.6074C83.2436 39.3244 83.292 38.034 83.4907 36.762C83.4907 36.6267 83.5844 36.1282 83.6132 35.9787C83.6637 35.6938 82.7048 36.1994 82.6903 36.3419C82.6875 36.3703 82.6875 36.3989 82.6903 36.4273C82.2001 39.9095 81.1113 41.2697 80.5706 41.583C79.9001 41.9818 79.4963 41.4192 79.417 40.6074C79.3107 39.3672 79.3591 38.1187 79.5612 36.8902C79.5612 36.762 79.6549 36.2564 79.6766 36.1069C79.7342 35.822 78.7825 36.1994 78.7609 36.3419C78.7393 36.4843 78.7609 36.4059 78.7609 36.4273C78.7609 36.4487 78.6744 37.1394 78.6455 37.3459C78.5202 38.3309 78.4576 39.3227 78.4581 40.3154C78.0708 40.8488 77.5808 41.3013 77.0161 41.6471C76.2951 41.9889 75.9418 41.4691 75.8336 40.6573C75.7038 39.7315 75.7471 39.4823 75.9634 37.4385C75.9634 37.3103 76.0571 36.8119 76.086 36.6623C76.1364 36.3775 75.1775 36.8759 75.1559 37.0184C75.1607 37.049 75.1607 37.0803 75.1559 37.1109C75.1559 37.1109 75.0766 37.702 75.0549 37.9014C75.0333 38.1008 74.9973 38.3429 74.9684 38.5636C74.3563 38.5211 73.742 38.5211 73.1299 38.5636C73.1299 38.3358 73.1299 38.1435 73.1299 37.9868C73.1316 37.5103 73.0978 37.0343 73.0289 36.5626C72.9208 36.0997 72.0051 35.3947 72.0628 36.1852C72.1205 36.9756 72.1637 37.8729 72.1854 38.6491C71.605 38.7388 71.0333 38.877 70.4766 39.0621C70.4766 38.464 70.4766 37.9014 70.4766 37.4955C70.4752 37.3184 70.4559 37.1418 70.4189 36.9685C70.217 36.0926 69.6546 35.2737 68.3929 35.9573C68.1206 36.1175 67.8582 36.2934 67.607 36.4843V37.1964C67.7224 37.0967 68.2631 36.7193 68.3713 36.6623C69.049 36.2849 69.4456 36.8261 69.5249 37.6379C69.5828 38.2343 69.5972 38.834 69.5681 39.4324C69.1338 39.6373 68.7367 39.9115 68.3929 40.2442C68.054 40.5861 68.0252 41.5973 68.1694 41.462C68.5634 41.0772 69.0099 40.7489 69.496 40.4864C69.496 40.8851 69.4239 41.3195 69.3662 41.8322C69.3662 41.9604 69.2725 42.4589 69.2509 42.6085C69.1932 42.8933 70.1593 42.3948 70.1738 42.2524C70.1882 42.11 70.1738 42.1812 70.1738 42.1598C70.1738 42.1385 70.2531 41.5688 70.2819 41.3694C70.3252 41.0204 70.3684 40.5504 70.4045 40.0591C70.9884 39.8252 71.5883 39.6324 72.1998 39.4823C72.1998 40.1161 72.1998 40.6501 72.243 40.992C72.2453 41.4684 72.279 41.9441 72.344 42.4162C72.4593 42.8791 73.3678 43.584 73.3101 42.7936C73.2236 41.5759 73.1803 40.3083 73.1515 39.3256C73.7368 39.2162 74.3298 39.1519 74.9252 39.1333C74.8926 39.6693 74.8926 40.2067 74.9252 40.7427C74.9344 40.9342 74.9585 41.1246 74.9973 41.3124C75.1991 42.1812 75.7183 42.9574 77.0233 42.3236C77.5528 41.989 78.0353 41.5868 78.4581 41.1273C78.454 41.1818 78.454 41.2365 78.4581 41.291C78.6599 42.1669 79.2295 43.0144 80.4841 42.3094C81.3763 41.7166 82.0276 40.8312 82.3226 39.8098C82.3226 40.1588 82.3226 40.4864 82.3226 40.7641C82.3276 40.941 82.3469 41.1172 82.3803 41.291C82.5822 42.1669 83.1446 42.9859 84.4063 42.3094L84.7019 42.1242C86.4395 41.0062 86.4612 38.6349 87.6364 37.3032C88.1844 36.6837 89.8427 36.2208 89.9364 37.6094C90.0085 38.6705 88.9342 39.3398 88.0906 39.7458C88.0113 39.7458 87.7085 40.5504 87.9248 40.5291C88.5775 40.4632 89.2345 40.6054 89.7994 40.935C89.0483 41.3636 88.3258 41.8393 87.6364 42.3592C86.558 43.1258 85.6419 44.0935 84.9399 45.2077C84.8082 45.4019 84.7286 45.6261 84.7085 45.859C84.6884 46.092 84.7285 46.3261 84.8251 46.5396C84.9216 46.753 85.0714 46.9388 85.2605 47.0795C85.4495 47.2202 85.6716 47.3112 85.906 47.344C87.0104 47.4948 88.1354 47.3639 89.1741 46.9638C90.2128 46.5636 91.1305 45.9076 91.8398 45.0581C92.2245 44.5083 92.4203 43.851 92.3982 43.1831C92.3762 42.5151 92.1374 41.8719 91.7173 41.348C91.5995 41.2019 91.4719 41.0639 91.3351 40.935C92.0316 40.5969 92.7551 40.3158 93.4981 40.0947C93.4981 40.5148 93.4981 40.8709 93.4981 41.1273C93.4965 41.6038 93.5302 42.0798 93.5991 42.5515C93.7144 43.0144 94.6229 43.7193 94.5652 42.9289C94.4931 41.875 94.4499 40.7926 94.421 39.8739C95.3831 39.6458 96.3665 39.5169 97.3555 39.4894C97.3555 40.1232 97.3916 40.6573 97.3988 40.9991C97.4007 41.4755 97.4344 41.9513 97.4997 42.4233C97.6151 42.8933 98.5235 43.5912 98.4658 42.8078C98.3361 40.8851 98.3 38.8627 98.2712 37.994C98.2716 37.5316 98.2378 37.0699 98.1702 36.6125L98.1919 36.4629ZM90.5997 44.8374C89.9678 45.4417 89.203 45.8937 88.365 46.158C87.5271 46.4224 86.6387 46.4919 85.769 46.3613C84.6298 46.0693 86.49 44.2606 86.7712 43.99C87.6559 43.2036 88.6035 42.4892 89.6047 41.8536C89.8932 41.6685 90.1888 41.4904 90.4844 41.3266C90.6356 41.457 90.7799 41.5948 90.917 41.7397C91.775 42.6725 91.3424 44.0398 90.5925 44.8302L90.5997 44.8374ZM65.8982 42.1954C65.6072 42.2492 65.3071 42.2297 65.0258 42.1385C64.8309 42.0618 64.6577 41.9396 64.5211 41.7824C64.4037 41.6391 64.3155 41.4746 64.2616 41.2982C63.865 40.0377 63.5838 37.8444 63.3315 37.2961C63.2705 37.0963 63.1494 36.9196 62.9841 36.7897C62.8189 36.6597 62.6174 36.5826 62.4067 36.5687C62.1959 36.5547 61.9858 36.6046 61.8045 36.7117C61.6232 36.8188 61.4793 36.9779 61.392 37.1679C61.0302 37.7261 60.7189 38.3146 60.4619 38.9268C60.4619 38.9268 60.3681 37.6379 60.3537 36.9329C60.3616 36.7455 60.3108 36.5602 60.2082 36.4024C60.1056 36.2445 59.9562 36.1218 59.7803 36.0509C59.6045 35.9801 59.4108 35.9645 59.2257 36.0064C59.0405 36.0482 58.873 36.1455 58.7459 36.2849C58.2702 36.8261 57.8988 37.4488 57.65 38.1221C57.6199 37.7503 57.5247 37.3865 57.3688 37.0468C57.1525 36.6979 56.6478 36.3347 56.7415 36.8047C56.7415 37.0397 56.8136 38.642 56.8497 40.0092C55.8475 41.8038 53.4393 42.9716 52.8697 41.2483C53.6967 40.6078 54.4253 39.8522 55.0327 39.0052C56.1575 37.3887 55.7537 36.4415 55.1553 36.349C52.8553 36.0143 51.5503 39.3612 51.8243 41.2483C51.6843 41.3774 51.5294 41.4897 51.3628 41.583C50.6418 41.9533 50.2886 41.4121 50.2092 40.6003C50.1374 39.1981 50.2147 37.7922 50.44 36.4059C50.44 36.2778 50.5337 35.7793 50.5625 35.6297C50.613 35.3449 49.6541 35.8434 49.6397 35.9929C49.6357 36.0474 49.6357 36.1022 49.6397 36.1567C49.1491 36.1089 48.6539 36.167 48.1883 36.3268C47.7228 36.4866 47.2979 36.7445 46.9431 37.0825C46.385 37.6116 45.9555 38.2587 45.6871 38.9753C45.4186 39.692 45.318 40.4593 45.393 41.2198C45.1911 41.3694 44.9099 41.5545 44.8378 41.5973C44.1168 41.9747 43.7635 41.4335 43.6842 40.6217C43.5808 39.3384 43.6316 38.0477 43.8356 36.7762C43.8356 36.6409 43.9293 36.1425 43.951 35.9929C44.0086 35.7081 43.0425 36.2137 43.0281 36.3561C42.6399 37.5426 42.1175 38.682 41.4707 39.7529C40.5334 41.2341 38.0604 42.7865 37.4764 41.0133C38.2996 40.3714 39.0277 39.6188 39.6394 38.7773C40.7641 37.1537 40.3604 36.2066 39.7619 36.1211C37.4764 35.7864 36.1569 39.0835 36.4237 40.9777C35.9839 41.2341 35.4431 41.4691 35.371 41.056C35.335 40.8923 35.3206 40.7213 35.2989 40.5576C35.3031 40.5102 35.3031 40.4625 35.2989 40.4151C34.9457 39.6318 34.0083 39.8312 33.5109 39.8383L32.862 39.8953C32.8043 38.1008 33.0855 28.9003 33.0638 28.3662C33.0422 27.8321 31.9175 29.0356 31.9102 29.2848V29.5412C30.9184 33.6108 29.3913 37.5347 27.3679 41.2127C26.828 41.4359 26.303 41.6928 25.7961 41.9818C24.2027 42.8791 22.631 44.9798 23.8927 46.1619C24.2411 46.4247 24.6401 46.6146 25.0653 46.7199C25.4905 46.8252 25.933 46.8437 26.3657 46.7743C26.5244 46.7743 26.2143 46.3328 25.998 46.3257C24.556 46.2758 23.835 45.2789 24.9958 43.9543C26.1971 42.8037 27.65 41.9412 29.2425 41.4335C29.2425 41.4335 29.7905 41.2412 29.9635 41.1913C30.1366 41.1415 30.6845 41.0062 30.6845 41.0062C31.6306 40.7769 32.596 40.6339 33.5685 40.5789C34.0372 40.5789 34.4626 40.6359 34.5419 41.0347C34.6212 41.4335 34.5419 41.7468 34.5996 41.9462C34.8952 42.5515 36.0416 41.9462 36.6544 41.583V41.6613C37.4547 43.9116 40.2594 42.4162 41.3626 40.8709C41.9839 40.0282 42.486 39.1059 42.855 38.1293C42.7729 39.0074 42.7416 39.8895 42.7613 40.7712C42.7682 40.9483 42.7899 41.1246 42.8262 41.2982C43.0281 42.1741 43.5472 42.993 44.8522 42.3165C44.9604 42.2524 45.4146 41.9604 45.5732 41.818C45.6871 42.0851 45.8841 42.3096 46.1356 42.4589C47.3901 43.171 48.6519 42.1954 49.2719 40.8424C49.2719 40.8424 49.2719 40.7783 49.2719 40.7498C49.2748 40.9273 49.2965 41.1039 49.3368 41.2768C49.5387 42.1527 50.0578 42.9716 51.3556 42.2951C51.5575 42.1883 51.8171 42.0174 51.9973 41.8963C52.8409 44.2677 55.9917 42.5088 56.8641 40.8424C56.8641 41.348 56.8641 41.7539 56.9146 41.9391C56.9867 42.6512 57.9888 43.0998 57.9384 42.3592C57.8951 41.7397 57.823 41.4548 57.787 40.3867C57.7918 39.2428 58.1378 38.1257 58.7819 37.175C59.0776 36.762 59.5029 36.8688 59.4597 37.3317C59.4518 38.4953 59.5168 39.6583 59.6544 40.8139C59.7986 41.3836 60.4835 41.6613 60.4907 41.1201C60.5069 39.9067 60.9023 38.7278 61.6227 37.7447C61.8967 37.3958 62.2932 37.2534 62.4663 37.8587C62.9349 39.5179 63.0286 41.2768 63.5622 42.0815C63.7924 42.415 64.1266 42.665 64.5139 42.7936C64.6533 42.8395 64.7996 42.8612 64.9465 42.8577C65.161 42.8697 65.3749 42.8255 65.5666 42.7295C65.9199 42.5159 66.1362 42.1171 65.8622 42.1954H65.8982ZM31.8526 39.9879C31.3623 40.0591 30.8071 40.1659 30.1149 40.3297L29.3939 40.5148L28.6729 40.7214L28.5215 40.7712C30.017 37.8297 31.1499 34.7217 31.8958 31.5137C31.8958 34.4191 31.8309 38.5779 31.8526 39.9879ZM37.3682 39.703C37.4076 38.7371 37.7876 37.8151 38.4425 37.0967C39.0049 36.6267 39.8413 36.5697 39.661 37.3815C39.2458 38.5998 38.4444 39.6535 37.3754 40.3867C37.3594 40.1495 37.3594 39.9117 37.3754 39.6745L37.3682 39.703ZM47.9165 41.7326C47.0657 42.4945 46.3086 41.5901 46.3086 40.3724C46.2943 39.7928 46.4119 39.2174 46.6528 38.6887C46.8936 38.16 47.2515 37.6914 47.7002 37.3174C48.2359 36.954 48.8848 36.79 49.5315 36.8546C49.2359 38.9055 48.7384 40.9848 47.9165 41.7183V41.7326ZM52.7688 39.8953C52.8102 38.9285 53.1928 38.0064 53.8503 37.289C54.4055 36.819 55.2418 36.7549 55.0616 37.5738C54.6447 38.7873 53.8465 39.8376 52.7832 40.5718C52.7682 40.3465 52.7682 40.1206 52.7832 39.8953H52.7688ZM137.933 39.6176C136.982 41.4976 134.458 42.7722 133.881 40.9991C134.705 40.3572 135.433 39.6045 136.044 38.763C137.169 37.1394 136.765 36.1923 136.16 36.1069C133.881 35.7722 132.555 39.0692 132.829 40.9635C132.382 41.2198 131.848 41.4548 131.769 41.0418C131.769 40.878 131.726 40.7071 131.697 40.5433C131.686 40.4847 131.669 40.4274 131.646 40.3724C131.408 39.8383 130.702 39.7529 130.118 39.7885C130.15 38.5625 130.112 37.3356 130.002 36.114C129.887 35.644 128.979 34.9461 129.029 35.7294C129.144 37.2961 129.173 38.9411 129.209 39.9594C128.798 40.0947 128.092 40.3511 127.436 40.5576C127.478 39.2463 127.442 37.9338 127.328 36.6267C127.212 36.1638 126.304 35.4588 126.354 36.2493C126.477 38.0082 126.513 39.8597 126.542 40.821L126.325 40.8638C125.806 40.9635 124.667 41.1842 124.689 40.5504C124.739 38.7203 125.049 37.2106 124.422 36.3846C123.919 35.8691 123.257 35.5334 122.54 35.4303C122.506 35.2599 122.455 35.093 122.389 34.9319C122.259 34.7254 121.725 35.4446 121.725 35.4446C121.199 35.4523 120.679 35.5669 120.199 35.7813C119.719 35.9957 119.289 36.3053 118.935 36.6908C117.37 38.2503 117.089 41.4904 118.618 42.1242C120.06 42.7081 121.502 41.7112 122.079 40.4151C122.586 39.0822 122.783 37.6535 122.655 36.235C123.218 36.3276 123.672 36.5341 123.751 37.0326C123.975 38.4568 123.521 40.5932 123.751 41.1415C124.105 41.9248 125.467 41.6898 125.994 41.6115C126.087 41.5982 126.178 41.5768 126.268 41.5474C126.484 41.4904 126.772 41.3979 127.082 41.291C128.049 40.9777 128.705 40.7641 129.087 40.6929C129.469 40.6217 130.529 40.4507 130.759 40.8994C130.933 41.2341 130.759 41.7468 130.882 41.9391C131.185 42.5444 132.367 41.9391 132.944 41.5759V41.6542C133.853 44.2178 137.436 41.9675 137.991 40.23C138.027 40.1089 137.941 39.5179 137.883 39.6389L137.933 39.6176ZM120.435 41.2127C119.57 42.0316 118.704 41.2554 118.589 40.0377C118.528 39.4502 118.607 38.8567 118.818 38.3043C119.03 37.7519 119.368 37.2556 119.807 36.8546C120.355 36.4375 121.027 36.212 121.718 36.2137C121.848 38.5423 121.415 40.3368 120.471 41.1985L120.435 41.2127ZM133.737 39.703C133.766 38.729 134.141 37.7961 134.797 37.0682C135.352 36.5982 136.196 36.5412 136.008 37.3531C135.596 38.5708 134.797 39.6246 133.73 40.3582C133.71 40.1212 133.71 39.883 133.73 39.6461L133.737 39.703ZM100.34 38.8556C100.34 38.5138 100.34 38.2218 100.34 38.0011C100.342 37.5245 100.308 37.0485 100.24 36.5769C100.131 36.114 99.2157 35.409 99.2734 36.1994C99.4104 38.115 99.4392 40.1445 99.468 41.0062C99.4703 41.4826 99.504 41.9584 99.569 42.4304V42.4874C99.5801 42.5635 99.6126 42.635 99.6627 42.6939C99.7069 42.7494 99.7551 42.8018 99.8069 42.8506C99.9264 42.9957 100.087 43.1023 100.268 43.1568C101.602 43.7407 103.794 42.7295 103.873 41.3195C103.981 39.5036 101.754 39.0408 100.348 38.8556H100.34ZM100.485 42.3094C100.42 41.3053 100.384 40.3083 100.362 39.4609C101.299 39.582 102.583 39.8383 102.864 40.7641C103.167 41.7966 101.379 42.7509 100.485 42.288" fill="#00B1AA"/>
<path d="M51.4532 13.5124H58.9617C58.8324 11.3591 57.4097 9.88764 55.3691 9.88764C52.998 9.88764 51.8484 11.3232 51.4532 13.5124ZM46.9696 15.314C46.9696 10.2896 50.361 6.42795 55.3044 6.42795C60.7364 6.42795 63.6393 10.5767 63.6393 16.5988H51.3813C51.719 19.2044 53.1632 20.8122 55.6924 20.8122C56.3895 20.8771 57.0884 20.7085 57.679 20.3329C58.2696 19.9574 58.7183 19.3962 58.9545 18.7378H63.3662C62.7411 21.7381 60.0754 24.2719 55.7212 24.2719C50.1311 24.2719 46.9696 20.3385 46.9696 15.314Z" fill="#535D62"/>
<path d="M93.9177 13.5124H101.426C101.297 11.3591 99.8814 9.88764 97.8336 9.88764C95.4625 9.88764 94.3129 11.3232 93.9177 13.5124ZM89.4341 15.314C89.4341 10.2896 92.8255 6.42795 97.7761 6.42795C103.208 6.42795 106.104 10.5767 106.104 16.5988H93.853C94.1763 19.2044 95.6278 20.8122 98.1641 20.8122C98.8614 20.8784 99.5609 20.7103 100.152 20.3345C100.743 19.9588 101.191 19.3969 101.426 18.7378H105.845C105.22 21.7381 102.547 24.2719 98.2001 24.2719C92.6028 24.2719 89.4341 20.3528 89.4341 15.314Z" fill="#535D62"/>
<path d="M12.4591 14.5962C12.4591 12.1199 11.1155 10.0168 8.36357 10.0168C6.04275 10.0168 4.49793 11.7969 4.49793 14.625C4.49793 17.453 6.04275 19.1685 8.39231 19.1685C11.2664 19.1685 12.4591 17.0941 12.4591 14.5962ZM0.395185 24.2719H4.91467C5.28112 25.3198 6.25831 26.1453 8.37075 26.1453C10.9574 26.1453 12.2005 24.9322 12.2005 22.621V20.7835H12.0999C11.5476 21.4319 10.8552 21.9464 10.0747 22.2884C9.29429 22.6303 8.44629 22.7907 7.59475 22.7574C3.75786 22.7574 0 19.7929 0 14.6896C0 9.58617 3.08963 6.42795 7.45823 6.42795C8.3766 6.37983 9.29264 6.55907 10.125 6.94976C10.9573 7.34044 11.6801 7.93047 12.2292 8.66742H12.3011V6.89451H16.6984V22.4918C16.7582 23.4453 16.6055 24.4001 16.2514 25.2876C15.8973 26.175 15.3506 26.9729 14.6506 27.6239C13.2136 28.9446 10.9862 29.5332 8.43542 29.5332C3.72912 29.5332 0.840668 27.5593 0.366445 24.2719" fill="#535D62"/>
<path d="M83.1255 0.240723H87.6881V4.26027H83.1255V0.240723ZM80.2514 29.1384V25.9515C82.098 25.9515 83.1255 25.7505 83.1255 24.2073V6.89451H87.6881V24.4298C87.6881 26.4108 87.2929 27.4014 86.5457 28.1192C86.042 28.5573 85.456 28.8909 84.8219 29.1004C84.1878 29.3099 83.5183 29.3911 82.8525 29.3394C81.9861 29.3456 81.1208 29.2784 80.2658 29.1384" fill="#535D62"/>
<path d="M69.5814 9.19139H69.6892C70.2097 8.31112 70.9601 7.5889 71.86 7.10209C72.7599 6.61529 73.7755 6.38225 74.7979 6.42795C78.3905 6.42795 80.7472 9.06219 80.7472 12.7516V23.7766H76.1774V13.4119C76.1774 11.6031 75.0997 10.3111 73.1812 10.3111C71.2628 10.3111 69.6892 11.8974 69.6892 14.2015V23.7766H65.1194V6.89451H69.5814V9.19139Z" fill="#535D62"/>
<path d="M31.2628 15.3499C31.2628 12.0625 29.682 9.82304 26.8942 9.82304C24.1063 9.82304 22.5256 12.0625 22.5256 15.3499C22.5256 18.6373 24.0704 20.8481 26.8942 20.8481C29.718 20.8481 31.2628 18.6445 31.2628 15.3499ZM17.8839 15.3499C17.8486 14.162 18.0581 12.9794 18.4994 11.8758C18.9408 10.7721 19.6045 9.77084 20.4494 8.93417C21.2944 8.0975 22.3025 7.44329 23.4112 7.01216C24.5198 6.58102 25.7054 6.38217 26.8942 6.42795C28.0824 6.38318 29.2672 6.58278 30.375 7.01436C31.4828 7.44595 32.49 8.10032 33.3342 8.93688C34.1783 9.77344 34.8414 10.7743 35.2823 11.8775C35.7232 12.9807 35.9325 14.1626 35.8972 15.3499C35.9325 16.5372 35.7232 17.7191 35.2823 18.8223C34.8414 19.9255 34.1783 20.9264 33.3342 21.7629C32.49 22.5995 31.4828 23.2539 30.375 23.6855C29.2672 24.117 28.0824 24.3166 26.8942 24.2719C25.7054 24.3177 24.5198 24.1188 23.4112 23.6877C22.3025 23.2565 21.2944 22.6023 20.4494 21.7657C19.6045 20.929 18.9408 19.9277 18.4994 18.8241C18.0581 17.7204 17.8486 16.5379 17.8839 15.3499Z" fill="#535D62"/>
<path d="M41.7172 9.57181H41.8178C42.8669 7.66253 44.0381 6.70071 46.0571 6.70071C46.4193 6.68041 46.7822 6.72664 47.1277 6.83709V10.749H47.0343C44.0381 10.4547 41.8897 11.9979 41.8897 15.5581V23.7766H37.3199V6.89451H41.7172V9.57181Z" fill="#535D62"/>
</svg>
