<svg width="84" height="22" viewBox="0 0 84 22" fill="none" xmlns="http://www.w3.org/2000/svg">
<path d="M36.8818 17.9092V21.8426C31.8357 22.6359 28.2563 19.7381 27.3256 15.8902C26.2866 11.5895 28.9338 7.26021 33.1357 6.2927C37.4666 5.2951 41.6418 7.93003 42.6149 12.302C42.7516 12.9148 42.8051 13.5562 42.8114 14.1848C42.8334 16.4809 42.8208 18.7769 42.8177 21.0746C42.8177 21.3311 42.7925 21.5892 42.7768 21.8885H38.9065C38.894 21.605 38.872 21.3263 38.872 21.0461C38.8688 18.7231 38.894 16.4001 38.861 14.0771C38.8342 12.2751 37.8266 10.8531 36.2703 10.2926C34.7785 9.75421 33.098 10.1786 32.0448 11.39C31.0246 12.5649 30.7699 13.9299 31.2997 15.3788C31.831 16.8276 32.9031 17.7192 34.4436 17.8965C35.2171 17.9852 36.0094 17.9123 36.8787 17.9123L36.8818 17.9092Z" fill="#010101"/>
<path d="M8.23309 6.1012C12.5687 6.10595 16.0208 9.62287 16.0145 14.0313C16.0082 18.4002 12.5105 21.9424 8.19065 21.9567C3.86608 21.9693 0.292934 18.3606 0.300794 13.9886C0.308654 9.59912 3.8315 6.09644 8.23309 6.09961V6.1012ZM8.17021 10.0742C6.02601 10.0726 4.26065 11.8366 4.25122 13.9917C4.24179 16.1658 6.06531 17.9916 8.21423 17.9631C10.327 17.9346 12.0546 16.1896 12.0719 14.0661C12.0892 11.8398 10.3647 10.0758 8.17021 10.0742Z" fill="#010101"/>
<path d="M75.4688 6.10108C79.8515 6.10583 83.3209 9.63542 83.3005 14.0692C83.2816 18.419 79.7352 21.9708 75.4279 21.955C71.0892 21.9391 67.5664 18.3446 67.5821 13.9488C67.5962 9.60217 71.1191 6.09633 75.4688 6.10108ZM79.3532 14.0565C79.3705 11.8713 77.6649 10.101 75.5175 10.0741C73.3262 10.0471 71.5372 11.8048 71.5231 13.9979C71.5089 16.1293 73.2806 17.9282 75.4216 17.9582C77.5438 17.9883 79.3375 16.2085 79.3548 14.0549L79.3532 14.0565Z" fill="#010101"/>
<path d="M67.0298 10.0947H61.0499C61.0499 11.6418 60.9226 13.1271 61.0814 14.5808C61.303 16.6171 62.9112 17.9156 64.9941 17.9694C65.6465 17.9868 66.3004 17.9726 67.0125 17.9726V21.8601C60.8283 22.8371 57.0508 18.5379 57.0508 13.9632C57.0508 9.5516 57.0555 5.14 57.0618 0.728405C57.0618 0.497215 57.0885 0.266026 57.1058 0H60.9823V6.09643H67.0314V10.0963L67.0298 10.0947Z" fill="#010101"/>
<path d="M27.0456 6.10112V10.0741C26.5064 10.0741 26.0159 10.0725 25.5255 10.0741C23.0354 10.0852 21.388 11.7098 21.3628 14.2276C21.3393 16.5775 21.3581 18.929 21.355 21.2804C21.355 21.4625 21.333 21.6462 21.3172 21.8806H17.4234C17.4234 20.9891 17.414 20.1498 17.425 19.3106C17.4549 17.1475 17.3291 14.9655 17.568 12.8246C17.9956 8.98465 21.2811 6.16446 25.1152 6.10112C25.7393 6.09003 26.3634 6.10112 27.0456 6.10112Z" fill="#010101"/>
<path d="M51.0645 6.14062H54.9048V21.8631H51.0645V6.14062Z" fill="#010101"/>
<path d="M45.0156 0.0283203H48.7727V3.84453H45.0156V0.0283203Z" fill="#DE1E23"/>
<path d="M54.8725 3.86989H51.084V0.0410156H54.8725V3.86989Z" fill="#DE1E23"/>
</svg>
