<svg width="107" height="27" viewBox="0 0 107 27" fill="none" xmlns="http://www.w3.org/2000/svg">
<path d="M2.76597 14.828C2.6765 19.0262 5.71852 20.3141 9.50187 20.3141C11.6683 20.3141 14.966 19.1399 14.966 16.1727C14.966 13.8558 12.6525 12.9467 10.7161 12.4859L6.12114 11.3748C3.69264 10.775 1.46225 9.66392 1.46225 6.46318C1.46864 4.46193 2.76597 0.718262 8.58159 0.718262C12.6909 0.718262 16.2186 2.8584 16.2186 7.06292H14.2502C14.1032 3.97582 11.5597 2.37861 8.61355 2.37861C5.92302 2.37861 3.43701 3.40764 3.43701 6.43792C3.43701 8.35079 4.85576 9.17781 6.5621 9.55028L11.5917 10.7813C14.5122 11.5515 16.9408 12.8394 16.9408 16.1538C16.9408 17.5553 16.3592 21.9808 9.04812 21.9808C4.15916 21.9744 0.56754 19.8027 0.803999 14.828H2.77236H2.76597Z" fill="#535D62"/>
<path d="M18.6152 1.14746H20.4366V4.03254H18.6152V1.14746ZM18.6152 6.80399H20.4366V21.5451H18.6152V6.80399Z" fill="#535D62"/>
<path d="M22.7754 6.80429H24.4562V9.29165H24.5456C25.4979 7.49242 27.0317 6.375 29.4346 6.375C31.403 6.375 33.1668 7.31565 33.7164 9.26008C34.6111 7.31565 36.49 6.375 38.4584 6.375C41.756 6.375 43.4049 8.09216 43.4049 11.5454V21.5454H41.5835V11.6338C41.5835 9.20327 40.6888 7.89014 38.0558 7.89014C34.9051 7.89014 34.004 10.4596 34.004 13.2058V21.5454H32.1826V11.5454C32.1826 9.54417 31.403 7.89014 29.0575 7.89014C25.9324 7.89014 24.6032 10.2323 24.6032 13.3194V21.5454H22.7818V6.80429H22.7754Z" fill="#535D62"/>
<path d="M45.7383 6.80429H47.4191V9.60099H47.4766C48.3138 7.57449 50.3652 6.375 52.8001 6.375C57.3376 6.375 59.5104 9.97346 59.5104 14.1717C59.5104 18.3699 57.344 21.9683 52.8001 21.9683C50.6017 21.9683 48.4032 20.8825 47.6236 18.7423H47.566V26.9999H45.7447V6.80429H45.7383ZM52.7937 7.89014C48.742 7.89014 47.5597 10.832 47.5597 14.178C47.5597 17.2335 48.9465 20.4658 52.7937 20.4658C56.2639 20.4658 57.6827 17.2398 57.6827 14.178C57.6827 11.1161 56.2639 7.89014 52.7937 7.89014Z" fill="#535D62"/>
<path d="M61.2363 1.14746H63.0577V21.5451H61.2363V1.14746Z" fill="#535D62"/>
<path d="M65.459 1.14746H67.2804V4.03254H65.459V1.14746ZM65.459 6.80399H67.2804V21.5451H65.459V6.80399Z" fill="#535D62"/>
<path d="M80.1782 11.4314C79.6861 9.23441 78.3568 7.88972 75.9539 7.88972C72.4837 7.88972 70.7198 11.0589 70.7198 14.1776C70.7198 17.2962 72.4837 20.4654 75.9539 20.4654C78.1779 20.4654 80.0632 18.6914 80.2932 16.2672H82.1146C81.6225 19.8404 79.309 21.9805 75.9539 21.9805C71.4164 21.9805 68.8984 18.4073 68.8984 14.1839C68.8984 9.96042 71.4164 6.38721 75.9539 6.38721C79.1621 6.38721 81.565 8.04124 81.9996 11.444H80.1782V11.4314Z" fill="#535D62"/>
<path d="M83.5254 1.14746H85.3468V4.03254H83.5254V1.14746ZM83.5254 6.80399H85.3468V21.5451H83.5254V6.80399Z" fill="#535D62"/>
<path d="M90.6138 6.80386H93.6495V8.319H90.6138V18.2621C90.6138 19.4364 90.7864 20.1182 92.0901 20.2066C92.6078 20.2066 93.1318 20.175 93.6495 20.1182V21.6586C93.0999 21.6586 92.5822 21.7154 92.0326 21.7154C89.6041 21.7154 88.7669 20.9136 88.7925 18.401V8.319H86.1914V6.80386H88.7925V2.37207H90.6138V6.79755V6.80386Z" fill="#535D62"/>
<path d="M93.4766 6.80416H95.413L100.327 19.3735L104.922 6.80416H106.744L100.264 23.799C99.1963 26.2864 98.6148 26.9998 96.3332 26.9998C95.6111 26.9745 95.266 26.9745 94.9464 26.8545V25.3394C95.381 25.4278 95.7581 25.4846 96.1926 25.4846C97.8095 25.4846 98.1866 24.544 98.7937 23.1677L99.4328 21.4821L93.4766 6.79785V6.80416Z" fill="#535D62"/>
</svg>
