<svg width="139" height="45" viewBox="0 0 139 45" fill="none" xmlns="http://www.w3.org/2000/svg">
<g clip-path="url(#clip0_12895_3707)">
<path fill-rule="evenodd" clip-rule="evenodd" d="M41.7455 40.8991C41.7455 42.4725 40.9504 44.1212 39.0423 44.1212C37.1341 44.1212 36.3307 42.4725 36.3307 40.8991C36.3307 39.3258 37.1425 37.6771 39.0423 37.6771C40.942 37.6771 41.7455 39.3258 41.7455 40.8991ZM42.7916 40.8991C42.7916 38.7567 41.5279 36.7983 39.0423 36.7983C36.5567 36.7983 35.293 38.7567 35.293 40.8991C35.293 43.0416 36.5567 44.9999 39.0423 44.9999C41.5279 44.9999 42.7916 43.0416 42.7916 40.8991ZM28.9569 37.6767C30.0532 37.6767 30.9236 38.2375 31.1496 39.3422L31.1412 39.3505H32.1873C31.9614 37.6851 30.5972 36.8064 28.9653 36.8064C26.555 36.8064 25.2578 38.6475 25.2578 40.9239C25.2578 43.2003 26.4546 44.9996 28.8732 44.9996C30.8567 44.9996 32.0534 43.8196 32.2626 41.8612H31.2249C31.1328 43.1584 30.321 44.1209 28.9653 44.1209C27.0906 44.1209 26.3039 42.6312 26.3039 40.8486C26.3039 39.2083 27.0906 37.6767 28.9569 37.6767ZM46.2303 36.9825V44.8158H51.4191V43.9371H47.2765V36.9825H46.2303ZM54.5078 44.8158V36.9824H55.5456V43.937H59.6966V44.8158H54.5078ZM62.7773 36.9824V44.8158H68.2172V43.937H63.8235V41.2255H67.8824V40.3468H63.8235V37.8612H68.1837V36.9824H62.7773ZM74.9608 37.677C76.0571 37.677 76.9275 38.2377 77.1535 39.3424L77.1451 39.3508H78.1912C77.9653 37.6854 76.6011 36.8066 74.9692 36.8066C72.5589 36.8066 71.2617 38.6478 71.2617 40.9242C71.2617 43.2005 72.4585 44.9999 74.8771 44.9999C76.8606 44.9999 78.0573 43.8198 78.2665 41.8615H77.2288C77.1367 43.1587 76.325 44.1211 74.9692 44.1211C73.0945 44.1211 72.3078 42.6315 72.3078 40.8489C72.3078 39.2085 73.0945 37.677 74.9608 37.677ZM80.9023 36.9824V37.8612H83.5135V44.8158H84.5512V37.8612H87.1707V36.9824H80.9023ZM90.25 36.9824H91.2961V44.8074H90.25V36.9824ZM98.5462 44.1212C100.454 44.1212 101.249 42.4725 101.249 40.8991C101.249 39.3258 100.446 37.6771 98.5462 37.6771C96.6464 37.6771 95.8346 39.3258 95.8346 40.8991C95.8346 42.4725 96.6381 44.1212 98.5462 44.1212ZM98.5462 36.7983C101.032 36.7983 102.295 38.7567 102.295 40.8991C102.295 43.0416 101.032 44.9999 98.5462 44.9999C96.0606 44.9999 94.7969 43.0416 94.7969 40.8991C94.7969 38.7567 96.0606 36.7983 98.5462 36.7983ZM110.974 43.3345V36.9824H111.961V44.8158H110.823L106.731 38.5307H106.706V44.8158H105.727V36.9824H106.831L110.949 43.3345H110.974Z" fill="white"/>
<path d="M2.58763 18.7047C2.47046 24.27 6.4541 25.9773 11.4085 25.9773C14.2456 25.9773 18.564 24.4207 18.564 20.4873C18.564 17.4158 15.5344 16.2107 12.9986 15.5998L6.98134 14.1268C3.80113 13.3318 0.880356 11.8588 0.880356 7.61577C0.888725 4.9628 2.58763 0 10.2034 0C15.5847 0 20.2043 2.83708 20.2043 8.41082H17.6267C17.4342 4.31839 14.1033 2.20104 10.2452 2.20104C6.7219 2.20104 3.46637 3.56519 3.46637 7.5823C3.46637 10.1181 5.32428 11.2144 7.5588 11.7082L14.1452 13.3402C17.9698 14.3612 21.15 16.0684 21.15 20.4622C21.15 22.3201 20.3884 28.1867 10.8143 28.1867C4.41206 28.1784 -0.291302 25.2994 0.0183507 18.7047H2.596H2.58763Z" fill="#8E9EA6"/>
<path d="M23.3438 0.568848H25.7289V4.39347H23.3438V0.568848ZM23.3438 8.06745H25.7289V27.609H23.3438V8.06745Z" fill="#8E9EA6"/>
<path d="M28.793 8.06763H30.994V11.365H31.1112C32.3582 8.97984 34.3667 7.49854 37.5134 7.49854C40.0911 7.49854 42.4009 8.74551 43.1207 11.3232C44.2923 8.74551 46.7528 7.49854 49.3304 7.49854C53.6488 7.49854 55.808 9.7749 55.808 14.3527V27.6092H53.4229V14.4699C53.4229 11.2478 52.2512 9.50709 48.8032 9.50709C44.6773 9.50709 43.4973 12.9133 43.4973 16.5538V27.6092H41.1121V14.3527C41.1121 11.6998 40.0911 9.50709 37.0197 9.50709C32.9272 9.50709 31.1865 12.612 31.1865 16.7044V27.6092H28.8013V8.06763H28.793Z" fill="#8E9EA6"/>
<path d="M58.8594 8.06763H61.0604V11.7751H61.1357C62.2321 9.08864 64.9185 7.49854 68.1071 7.49854C74.0491 7.49854 76.8945 12.2689 76.8945 17.8342C76.8945 23.3996 74.0574 28.1699 68.1071 28.1699C65.2282 28.1699 62.3492 26.7304 61.3282 23.8934H61.2529V34.84H58.8677V8.06763H58.8594ZM68.0987 9.50709C62.7928 9.50709 61.2445 13.407 61.2445 17.8426C61.2445 21.8932 63.0606 26.1781 68.0987 26.1781C72.6431 26.1781 74.501 21.9015 74.501 17.8426C74.501 13.7836 72.6431 9.50709 68.0987 9.50709Z" fill="#8E9EA6"/>
<path d="M79.1562 0.568848H81.5414V27.609H79.1562V0.568848Z" fill="#8E9EA6"/>
<path d="M84.6875 0.569092H87.0727V4.39372H84.6875V0.569092ZM84.6875 8.0677H87.0727V27.6093H84.6875V8.0677Z" fill="#8E9EA6"/>
<path d="M103.963 14.202C103.318 11.2895 101.577 9.50695 98.4308 9.50695C93.8864 9.50695 91.5766 13.7082 91.5766 17.8425C91.5766 21.9767 93.8864 26.178 98.4308 26.178C101.343 26.178 103.812 23.8263 104.113 20.6126H106.498C105.854 25.3494 102.824 28.1865 98.4308 28.1865C92.4888 28.1865 89.1914 23.4497 89.1914 17.8508C89.1914 12.252 92.4888 7.51514 98.4308 7.51514C102.632 7.51514 105.779 9.70781 106.348 14.2187H103.963V14.202Z" fill="#8E9EA6"/>
<path d="M108.348 0.568848H110.733V4.39347H108.348V0.568848ZM108.348 8.06745H110.733V27.609H108.348V8.06745Z" fill="#8E9EA6"/>
<path d="M117.627 8.06789H121.603V10.0764H117.627V23.2576C117.627 24.8142 117.853 25.7181 119.561 25.8352C120.238 25.8352 120.925 25.7934 121.603 25.7181V27.7601C120.883 27.7601 120.205 27.8354 119.485 27.8354C116.305 27.8354 115.209 26.7726 115.242 23.4417V10.0764H111.836V8.06789H115.242V2.19287H117.627V8.05953V8.06789Z" fill="#8E9EA6"/>
<path d="M121.379 8.06794H123.915L130.35 24.7306L136.368 8.06794H138.753L130.267 30.5972C128.869 33.8946 128.108 34.8403 125.12 34.8403C124.174 34.8068 123.722 34.8068 123.304 34.6478V32.6393C123.873 32.7564 124.367 32.8317 124.936 32.8317C127.053 32.8317 127.547 31.5848 128.342 29.7603L129.179 27.5258L121.379 8.05957V8.06794Z" fill="#8E9EA6"/>
</g>
<defs>
<clipPath id="clip0_12895_3707">
<rect width="138.758" height="45" fill="white"/>
</clipPath>
</defs>
</svg>
