<svg width="40" height="38" viewBox="0 0 40 38" fill="none" xmlns="http://www.w3.org/2000/svg">
<path d="M19.9934 37.9411C14.0367 37.9411 8.0822 37.9411 2.12558 37.9411C0.877826 37.9411 0.152581 37.2263 0.125411 35.9765C0.123321 35.8427 0.125411 35.7089 0.125411 35.5752C0.125411 26.6423 0.129591 17.7137 0.119141 8.78292C0.119141 7.65429 0.463998 6.7096 1.24567 5.88194C2.68362 4.35621 4.09022 2.80122 5.49264 1.24414C6.2137 0.44156 7.0748 0.059082 8.16371 0.059082C16.2919 0.0737123 24.4201 0.0716223 32.5482 0.059082C33.6246 0.059082 34.4648 0.45201 35.1315 1.28803C36.3897 2.85974 37.6563 4.42518 38.9354 5.97808C39.5812 6.76185 39.8801 7.63757 39.8801 8.65333C39.8717 17.7764 39.8759 26.8994 39.8759 36.0203C39.8759 36.9149 39.4161 37.5983 38.6282 37.8429C38.4087 37.9097 38.1684 37.9327 37.9385 37.9348C31.9568 37.939 25.9771 37.939 19.9954 37.939L19.9934 37.9411ZM19.9871 35.9785C25.8183 35.9785 31.6495 35.9785 37.4786 35.9785C37.9029 35.9785 37.905 35.9785 37.905 35.5689C37.905 26.5462 37.905 17.5235 37.905 8.50076C37.905 8.05558 37.7692 7.67101 37.487 7.32616C36.1786 5.71892 34.8724 4.11167 33.5744 2.49816C33.3174 2.17838 33.0164 2.02999 32.6068 2.02999C24.4201 2.03417 16.2334 2.03417 8.04667 2.02999C7.63493 2.02999 7.31098 2.17002 7.033 2.47726C5.54489 4.11585 4.05051 5.74818 2.55195 7.37841C2.23426 7.72327 2.08796 8.1141 2.08796 8.58018C2.09214 17.5611 2.09005 26.542 2.09005 35.5229C2.09005 35.5898 2.09423 35.6567 2.09005 35.7236C2.07751 35.9075 2.16529 35.9848 2.34295 35.9785C2.45163 35.9744 2.56031 35.9785 2.66899 35.9785C8.44169 35.9785 14.2144 35.9785 19.985 35.9785H19.9871Z" fill="white"/>
<path d="M10.3075 10.0204C10.3075 10.1876 10.3075 10.2775 10.3075 10.3674C10.3075 11.3371 10.3117 12.3048 10.3054 13.2746C10.3012 13.8159 9.87067 14.1441 9.40877 13.9748C9.1287 13.8724 8.97822 13.6404 8.97822 13.283C8.97822 11.6715 8.97822 10.058 8.97822 8.44661C8.97822 8.43825 8.97822 8.42989 8.97822 8.42153C8.98867 8.00143 9.21439 7.75481 9.63031 7.70465C9.69719 7.69629 9.76408 7.69629 9.83096 7.69629C11.3588 7.69629 12.8887 7.69629 14.4165 7.69629C14.5398 7.69629 14.6673 7.70674 14.7885 7.73809C15.1041 7.8196 15.2881 8.08295 15.2734 8.40899C15.2588 8.72668 15.0393 8.97121 14.7154 9.01929C14.567 9.04019 14.4165 9.04855 14.266 9.05064C13.4049 9.05273 12.5459 9.05064 11.6848 9.05064C11.5866 9.05064 11.4884 9.05064 11.3107 9.05064C11.4089 9.17395 11.4549 9.24501 11.5134 9.30353C14.3057 12.0979 17.1022 14.8902 19.8903 17.6888C20.0513 17.8497 20.1474 17.8539 20.3125 17.6888C23.1132 14.8777 25.9201 12.0749 28.7249 9.268C28.7709 9.22202 28.8127 9.16977 28.8963 9.07781C28.7626 9.06736 28.6706 9.05273 28.5786 9.05273C27.7008 9.05273 26.8251 9.05273 25.9473 9.05064C25.7884 9.05064 25.6296 9.04228 25.4728 9.01929C25.1551 8.97121 24.9336 8.71414 24.9211 8.39854C24.9106 8.0934 25.1008 7.82169 25.3976 7.74227C25.5167 7.71092 25.6442 7.69838 25.7675 7.69838C27.2954 7.69629 28.8253 7.69629 30.3531 7.69838C30.9717 7.69838 31.2309 7.93873 31.2351 8.55739C31.2434 10.0936 31.2393 11.6318 31.2372 13.168C31.2372 13.2182 31.233 13.2683 31.2288 13.3185C31.1787 13.7616 30.9028 14.0417 30.5349 14.0208C30.1587 13.9999 29.8933 13.7052 29.8891 13.2642C29.8807 12.3027 29.8849 11.3434 29.8849 10.382C29.8849 10.2859 29.8849 10.1918 29.8849 10.0204C29.7595 10.1354 29.6905 10.1918 29.6299 10.2524C26.8481 13.0343 24.0662 15.8161 21.2844 18.5979C21.0461 18.8362 21.0461 18.8383 21.2781 19.0682C24.06 21.8501 26.8418 24.6319 29.6237 27.4137C29.6864 27.4764 29.7553 27.5329 29.8682 27.6353C29.8766 27.4785 29.8849 27.3824 29.8849 27.2883C29.8849 26.3771 29.8849 25.4679 29.887 24.5567C29.887 24.4166 29.8975 24.2703 29.9309 24.1345C30.004 23.8377 30.282 23.6454 30.5851 23.6579C30.8965 23.6726 31.1515 23.8816 31.2037 24.1825C31.2309 24.3372 31.2393 24.4981 31.2393 24.657C31.2413 26.0845 31.2393 27.5141 31.2393 28.9416C31.2393 29.0502 31.2393 29.1589 31.2246 29.2676C31.1661 29.7504 30.9383 29.9657 30.4492 29.9678C28.8545 29.972 27.2577 29.972 25.663 29.9678C25.2513 29.9678 24.9775 29.7441 24.9252 29.393C24.8793 29.0879 25.0569 28.7806 25.3558 28.6824C25.4645 28.6469 25.5857 28.6406 25.7006 28.6406C26.6621 28.6364 27.6214 28.6406 28.5828 28.6406C28.6727 28.6406 28.7605 28.6406 28.9256 28.6406C28.8232 28.5236 28.7709 28.4546 28.7103 28.3961C25.9117 25.5954 23.109 22.7968 20.3146 19.992C20.1411 19.8164 20.0429 19.8311 19.8757 19.9983C16.981 22.9034 14.0779 25.8023 11.179 28.7033C11.1205 28.7618 11.0683 28.8245 10.9721 28.929C11.1101 28.9437 11.202 28.9604 11.294 28.9625C12.247 28.9646 13.198 28.9625 14.1511 28.9666C14.2932 28.9666 14.4353 28.9729 14.5733 29.0001C14.8868 29.0628 15.0874 29.3282 15.0811 29.6543C15.0749 29.9657 14.8742 30.2165 14.567 30.2771C14.4374 30.3022 14.3016 30.3085 14.1678 30.3085C12.6734 30.3085 11.1769 30.3105 9.68256 30.3085C8.99703 30.3085 8.77758 30.089 8.77758 29.4118C8.77758 27.9091 8.77758 26.4043 8.77758 24.9015C8.77758 24.8096 8.77549 24.7176 8.78385 24.6256C8.81938 24.2515 9.11198 23.9819 9.46729 23.9944C9.82887 24.007 10.1006 24.285 10.1027 24.6674C10.1089 25.6205 10.1048 26.5715 10.1048 27.5245C10.1048 27.6144 10.1048 27.7064 10.1048 27.8631C10.2051 27.7774 10.2657 27.7314 10.3179 27.6792C13.2001 24.797 16.0823 21.9128 18.9686 19.0348C19.117 18.8885 19.1191 18.8007 18.9707 18.6544C16.1554 15.8454 13.3443 13.0343 10.5332 10.2231C10.481 10.1709 10.4224 10.127 10.3054 10.0267L10.3075 10.0204Z" fill="white"/>
</svg>
