<svg width="42" height="36" viewBox="0 0 42 36" fill="none" xmlns="http://www.w3.org/2000/svg">
<g clip-path="url(#clip0_12895_4093)">
<path d="M39.225 14.3309C39.2471 11.3622 38.496 8.32361 37.0264 5.46525C36.3513 4.15318 35.5187 2.93982 34.5617 1.81414C34.4636 1.69887 34.3698 1.57011 34.3152 1.43094C34.1165 0.925115 34.3035 0.375148 34.7438 0.121317C35.1564 -0.116572 35.6763 0.00175947 36.0356 0.414388C37.0472 1.57441 37.913 2.8362 38.6469 4.18813C39.859 6.41988 40.6536 8.7951 41.0153 11.3064C41.4531 14.3481 41.301 17.3653 40.493 20.334C39.7689 22.9949 38.5819 25.4357 36.9197 27.6429C35.5807 29.4216 34.0098 30.9587 32.1828 32.2278C30.1576 33.635 27.951 34.6429 25.5494 35.2321C23.8493 35.6497 22.1282 35.825 20.3851 35.7766C16.9977 35.6822 13.8346 34.7803 10.9241 33.0378C7.52745 31.0041 4.92661 28.2107 3.07744 24.7135C1.73655 22.177 0.965866 19.4732 0.697933 16.6209C0.442876 13.9042 0.683832 11.2304 1.42325 8.60625C2.26629 5.6124 3.69853 2.92449 5.69791 0.541916C6.02593 0.15136 6.58202 -0.0436113 6.9174 0.0961796C7.3288 0.267239 7.61574 0.69213 7.55933 1.14706C7.53174 1.36595 7.42567 1.602 7.2865 1.7749C6.46369 2.79574 5.70588 3.85827 5.07376 5.00848C3.81809 7.29357 3.04556 9.72949 2.74146 12.3205C2.53054 14.1206 2.54464 15.9152 2.86163 17.6957C3.47168 21.1231 4.74512 24.2604 6.99281 26.9673C8.32389 28.5706 9.84626 29.9477 11.6194 31.0384C14.1185 32.5761 16.8291 33.4596 19.7665 33.6441C23.8296 33.8986 27.5507 32.8833 30.9069 30.6C33.9571 28.5252 36.225 25.7717 37.6377 22.3591C38.664 19.8784 39.2575 17.2892 39.2263 14.3303L39.225 14.3309Z" fill="white"/>
<path d="M25.5561 25.5952C23.2777 25.5192 21.6309 24.754 20.3108 23.2862C20.2973 23.2709 20.2839 23.2555 20.271 23.2396C19.9522 22.8546 19.946 22.4389 20.2556 22.1771C20.5714 21.9097 20.9264 21.9649 21.2691 22.3549C21.8179 22.9796 22.4629 23.4756 23.2354 23.781C25.1747 24.5474 26.9883 24.2972 28.6321 23.0152C31.4542 20.8135 31.51 16.2543 28.5818 13.949C28.03 13.5149 28.0815 12.9797 28.6842 12.6186C30.2556 11.6768 31.06 9.87669 30.7424 8.01404C30.4512 6.30344 29.1244 4.89204 27.3752 4.57138C25.7933 4.28138 24.4855 4.84974 23.4629 6.08272C23.4175 6.1379 23.377 6.19737 23.331 6.25194C22.8976 6.76696 22.4095 6.72526 22.0907 6.13544C21.6658 5.35004 21.1048 4.68726 20.385 4.15507C18.2409 2.56955 15.0736 2.91903 13.3194 4.93189C11.9945 6.45181 11.5825 8.21023 11.9712 10.1612C12.1386 11.0011 12.5126 11.7657 13.0448 12.445C13.1073 12.5254 13.1723 12.6069 13.2189 12.6964C13.3875 13.0226 13.2968 13.396 13.0074 13.5959C12.7235 13.7921 12.3869 13.7387 12.138 13.4358C11.4586 12.6106 10.9786 11.6774 10.7315 10.6382C10.2545 8.6339 10.5353 6.73323 11.6236 4.98033C13.5506 1.8755 17.5769 0.825231 20.7363 2.77127C21.4684 3.22252 22.095 3.78598 22.6002 4.47819C22.7664 4.70565 22.8749 4.73508 23.0962 4.53275C24.1214 3.59775 25.3372 3.12688 26.7259 3.13975C28.9564 3.1606 31.0312 4.65599 31.7522 6.80374C32.5517 9.18387 32.0747 11.2924 30.2955 13.0857C29.9969 13.3868 29.9932 13.3843 30.2771 13.7173C31.7363 15.4279 32.3384 17.4156 31.9803 19.6197C31.5248 22.426 29.9337 24.3628 27.209 25.2758C26.5879 25.4836 25.9123 25.5296 25.5561 25.5958V25.5952Z" fill="white"/>
<path d="M15.669 11.0944C15.6261 11.8497 15.886 12.4708 16.3072 13.0349C16.5979 13.4248 16.6046 13.7449 16.2931 14.1158C14.6187 16.1109 12.9406 18.1029 11.2631 20.0962C11.2171 20.1507 11.1693 20.2047 11.1197 20.2556C10.8198 20.5622 10.4753 20.5996 10.1963 20.3561C9.90507 20.1023 9.86031 19.716 10.1209 19.3972C10.7352 18.6462 11.3631 17.9055 11.9878 17.163C12.9351 16.0373 13.8775 14.908 14.8382 13.7939C15.0332 13.5683 14.959 13.4052 14.8486 13.1931C13.8621 11.3004 14.2938 8.46595 16.615 7.17534C18.325 6.22439 20.3685 6.57939 21.7051 8.03248C21.8247 8.16246 21.9173 8.29918 22.1294 8.13609C24.1104 6.61618 27.1821 7.70507 27.6156 10.5739C27.7842 11.6879 27.466 12.6793 26.748 13.5364C26.5788 13.7382 26.5659 13.8706 26.7229 14.0864C28.3121 16.2752 27.7554 19.2188 25.4856 20.6768C24.0969 21.5689 22.1171 21.4457 20.7769 20.3647C20.5782 20.2047 20.4531 20.2059 20.2496 20.3451C18.3618 21.6382 16.4673 22.9208 14.5733 24.2047C14.455 24.285 14.3342 24.3623 14.2073 24.4272C13.9179 24.5756 13.6469 24.5217 13.4342 24.2832C13.23 24.0551 13.2012 23.7081 13.3839 23.4628C13.4618 23.3586 13.5623 23.2636 13.6702 23.19C15.8161 21.732 17.9639 20.2764 20.1141 18.824C20.5942 18.4996 20.8192 18.5346 21.2281 18.968C22.2784 20.0809 23.9173 20.2206 25.1177 19.2991C26.6714 18.106 26.7229 15.7014 25.222 14.4175C24.6303 13.9117 24.6499 13.4874 25.29 13.0484C26.0822 12.5052 26.4225 11.7474 26.3139 10.8044C26.2073 9.87735 25.6941 9.23848 24.8167 8.92395C24.016 8.63701 23.3109 8.86387 22.6935 9.41261C22.5801 9.51377 22.4924 9.64314 22.39 9.75718C21.9872 10.2017 21.5359 10.1416 21.214 9.63762C21.0074 9.31389 20.7836 8.97791 20.4954 8.73327C19.5586 7.93867 18.485 7.77619 17.379 8.30654C16.322 8.81359 15.7634 9.70874 15.6721 10.8847C15.6659 10.9662 15.6714 11.0484 15.6714 11.0944H15.669Z" fill="white"/>
<path d="M11.422 21.8656C11.4974 21.7607 11.6163 21.5228 11.7997 21.3548C12.9726 20.2788 14.1589 19.2175 15.341 18.1513C15.6139 17.9054 15.8812 17.6528 16.1589 17.4125C16.528 17.0937 16.8671 17.0838 17.1319 17.3708C17.4023 17.6645 17.3974 18.0654 17.0719 18.3849C16.6574 18.7914 16.2135 19.1684 15.7819 19.5584C14.7831 20.4615 13.7849 21.3646 12.7849 22.2665C12.6562 22.3824 12.5323 22.5106 12.3846 22.5964C11.9376 22.8557 11.4134 22.5363 11.422 21.8656Z" fill="white"/>
</g>
<defs>
<clipPath id="clip0_12895_4093">
<rect width="40.6565" height="35.784" fill="white" transform="translate(0.599609)"/>
</clipPath>
</defs>
</svg>
