<svg width="20" height="20" viewBox="0 0 20 20" fill="none" xmlns="http://www.w3.org/2000/svg">
<path d="M2.38281 7.65625V18.2031" stroke="white" stroke-width="1.25" stroke-linecap="round" stroke-linejoin="round"/>
<path d="M16.4434 12.3435H18.2035C18.5265 12.3435 18.7886 12.0821 18.7895 11.7591C18.7957 8.76614 18.8113 5.15129 17.5715 2.15832C17.4646 1.89997 17.19 1.75316 16.9158 1.8077C16.6415 1.86224 16.4441 2.10294 16.4441 2.38254V18.2029" stroke="white" stroke-width="1.25" stroke-linecap="round" stroke-linejoin="round"/>
<path d="M1.21094 1.79688V6.48438C1.21094 7.13158 1.7356 7.65625 2.38281 7.65625V7.65625C3.03002 7.65625 3.55469 7.13158 3.55469 6.48438V1.79688" stroke="white" stroke-width="1.25" stroke-linecap="round" stroke-linejoin="round"/>
<path d="M13.5148 7.09565C11.5128 4.94658 8.19106 4.70795 5.90234 6.54878" stroke="white" stroke-width="1.25" stroke-linecap="round" stroke-linejoin="round"/>
<path d="M5.3125 15.2471C6.37318 16.3847 7.85869 17.0307 9.41406 17.0307C10.9694 17.0307 12.4549 16.3847 13.5156 15.2471" stroke="white" stroke-width="1.25" stroke-linecap="round" stroke-linejoin="round"/>
</svg>
