<svg width="44" height="40" viewBox="0 0 44 40" fill="none" xmlns="http://www.w3.org/2000/svg">
<g clip-path="url(#clip0_12895_4678)">
<path d="M43.3227 15.6765C43.2333 20.624 41.7036 24.552 38.4001 27.7332C37.2702 28.8215 35.9323 29.5975 34.5559 30.3283C30.472 32.4968 26.3894 34.6685 22.331 36.8843C21.1483 37.53 19.9904 38.2079 18.6904 38.5922C15.6651 39.4869 12.6801 39.3496 9.80871 38.0509C5.30392 36.0127 2.61445 32.4348 1.4032 27.7152C0.501746 24.2012 0.757531 20.7326 2.1122 17.3646C3.21915 14.6124 4.95315 12.3246 7.39428 10.6173C8.12749 10.1045 8.93395 9.68854 9.73421 9.28189C11.4397 8.41582 13.1699 7.59818 14.8778 6.73708C17.3811 5.47492 19.8737 4.19165 22.3701 2.91707C23.107 2.54084 23.8309 2.13668 24.5828 1.79211C25.6047 1.32338 26.6899 1.04959 27.8037 0.909284C31.0674 0.497049 34.0605 1.2464 36.7524 3.11388C40.2018 5.50596 42.1934 8.86096 43.0086 12.9324C43.2147 13.9611 43.2513 15.024 43.3227 15.6759V15.6765ZM16.985 32.6266C17.0644 32.6899 17.0843 32.6992 17.0949 32.7154C17.1234 32.7582 17.1514 32.8023 17.1737 32.8489C17.4047 33.3288 17.7858 33.6262 18.2987 33.7441C18.6507 33.8254 19.0126 33.8621 19.3646 33.9428C20.1072 34.1135 20.8602 34.2582 21.5823 34.4953C22.056 34.6512 22.038 34.7182 22.4185 34.3811C23.5199 33.407 24.4406 32.2833 25.1825 31.0137C25.4221 30.6039 25.4215 30.5977 24.9782 30.435C23.4851 29.8881 22.1342 29.094 20.9372 28.0517C18.0093 25.5025 16.3424 22.2561 15.7868 18.4454C15.3987 15.7858 15.639 13.1621 16.538 10.6136C16.6808 10.2094 16.6652 10.1865 16.2325 10.1393C14.6904 9.97226 13.1749 10.0971 11.693 10.5621C11.4359 10.6428 11.1926 10.7694 10.8666 10.9072C11.0392 11.0264 11.1236 11.0991 11.2199 11.1487C11.5508 11.3195 11.8941 11.4666 12.2169 11.6516C12.736 11.9484 13.278 12.2222 13.7467 12.5872C14.6742 13.3105 14.9374 14.3417 14.5246 15.3524C14.5016 15.4089 14.4532 15.4555 14.3861 15.5486C14.3526 15.3922 14.321 15.2941 14.311 15.1935C14.2241 14.3045 13.7417 13.6818 12.9942 13.2416C12.6646 13.0473 12.3119 12.8902 11.9928 12.681C11.4508 12.3259 10.9026 11.9726 10.4066 11.5585C10.1868 11.3747 10.0558 11.3319 9.79878 11.4474C8.11942 12.2004 6.82621 13.4148 5.71119 14.8421C5.45975 15.1637 5.24556 15.5145 4.99412 15.8808C5.20397 15.9857 5.3629 16.0571 5.51314 16.1428C6.04272 16.4439 6.59402 16.7139 7.09131 17.0622C7.71649 17.4999 8.11755 18.1108 8.17653 18.8974C8.20758 19.3103 8.11383 19.6995 7.88412 20.054C7.81831 19.9628 7.7823 19.8771 7.77547 19.7889C7.7047 18.8807 7.20865 18.2548 6.45061 17.8128C5.92352 17.5055 5.38339 17.2218 4.85133 16.9219C4.5018 16.7251 4.50428 16.7208 4.3261 17.0709C4.29816 17.1262 4.27209 17.1827 4.24539 17.2385C3.10181 19.648 2.63618 22.1823 2.85844 24.8401C3.17072 28.5744 4.62038 31.7723 7.42594 34.2936C9.48402 36.143 11.9078 37.1531 14.6916 37.2295C16.7155 37.2847 18.6091 36.821 20.348 35.7631C20.5728 35.6265 20.8087 35.5085 21.1241 35.3353C20.9273 35.2813 20.8248 35.2478 20.7205 35.2248C19.9743 35.0578 19.2218 34.9131 18.4824 34.7201C18.0174 34.5984 17.6027 34.3525 17.2948 33.967C16.9893 33.5852 16.8956 33.1518 16.985 32.6235V32.6266ZM26.5974 32.4043C26.7725 32.3162 26.8643 32.2715 26.955 32.2237C29.2533 30.9938 31.5504 29.7627 33.8488 28.5334C34.2622 28.3124 34.2809 28.246 34.0214 27.8586C33.6929 27.3687 33.2068 27.0745 32.7089 26.7932C32.1775 26.4934 31.6349 26.2115 31.1208 25.8849C30.6154 25.564 30.2051 25.1418 30.0095 24.552C29.863 24.1106 29.958 23.5549 30.2541 23.2991C30.2634 24.3242 30.9575 24.7705 31.7423 25.1517C32.2718 25.4094 32.8002 25.6739 33.3093 25.9687C33.8835 26.3009 34.3523 26.7516 34.626 27.3712C34.708 27.5568 34.7595 27.7561 34.8247 27.9498C34.8725 27.9474 34.9054 27.9529 34.9315 27.9424C34.9886 27.9188 35.0433 27.889 35.0966 27.8573C37.1206 26.6293 38.6441 24.9357 39.7566 22.8565C39.8715 22.6423 39.8293 22.5113 39.63 22.4002C39.26 22.1934 38.8844 21.9948 38.5249 21.7713C38.0258 21.4609 37.5192 21.1566 37.0523 20.8015C36.6537 20.4992 36.4184 20.064 36.3675 19.5555C36.3352 19.2308 36.3781 18.9136 36.6133 18.5591C36.6587 18.7509 36.6891 18.8577 36.709 18.9669C36.789 19.4077 37.0132 19.7598 37.3857 20.0019C37.6626 20.1819 37.9581 20.3322 38.2461 20.4942C38.8763 20.8481 39.5064 21.2013 40.1372 21.5534C40.1869 21.5813 40.2434 21.5974 40.3092 21.6241C40.3514 21.5316 40.3911 21.4596 40.4191 21.3832C41.906 17.3286 41.7905 13.3266 39.82 9.47373C37.9382 5.79465 34.9961 3.43361 30.8209 2.79849C30.3187 2.72213 29.8046 2.72213 29.2962 2.68736L29.2453 2.80905C29.3812 2.93818 29.4973 3.10891 29.6581 3.18651C29.9623 3.33303 30.2852 3.45658 30.6136 3.53356C31.2071 3.67263 31.8161 3.74713 32.4078 3.89179C33.2385 4.09418 34.0009 4.43005 34.4677 5.20858C34.7664 5.70649 34.8365 6.24103 34.7235 6.81965C34.6664 6.79668 34.6378 6.79482 34.6304 6.78116C34.5708 6.67251 34.5081 6.56511 34.459 6.4515C34.1461 5.7276 33.6048 5.27253 32.8467 5.06951C32.5972 5.00246 32.347 4.93852 32.0968 4.87209C31.4679 4.7057 30.824 4.57967 30.2138 4.36114C29.5488 4.12274 29.0112 3.70491 28.8641 2.94811C28.8218 2.7302 28.671 2.72337 28.5114 2.75441C27.7416 2.90465 26.9724 3.05738 26.205 3.22004C26.0504 3.25294 25.9058 3.33055 25.8145 3.36594C26.2621 3.6838 26.7576 3.95201 27.1425 4.33258C27.5522 4.73737 27.7081 5.28991 27.5901 5.89212C27.4895 5.81017 27.4181 5.7158 27.3573 5.61461C27.0034 5.02668 26.5055 4.6163 25.8269 4.49524C25.2284 4.38845 24.6182 4.34251 24.0116 4.28602C23.9079 4.27608 23.7893 4.33134 23.6906 4.38163C21.3308 5.58232 18.9723 6.78675 16.6143 7.99117C16.5187 8.04022 16.4275 8.09796 16.2511 8.19915C16.4653 8.2364 16.5851 8.2513 16.7025 8.27924C17.4972 8.46611 18.3148 8.58656 19.0809 8.85476C23.1555 10.2845 25.9306 13.1118 27.6621 17.0095C28.7045 19.3562 29.1149 21.8303 29.0112 24.3924C28.9193 26.6554 28.3885 28.8103 27.4057 30.8504C27.1648 31.3495 26.8941 31.8344 26.5968 32.4037L26.5974 32.4043ZM27.1412 23.6766C27.1239 23.3258 27.1139 22.9738 27.0872 22.6237C26.8128 19.0067 25.4675 15.8739 22.8506 13.3279C21.54 12.0527 20.0035 11.1413 18.2633 10.5708C17.9795 10.4776 17.8194 10.5229 17.7337 10.8253C17.581 11.3623 17.378 11.8857 17.2507 12.4283C16.6224 15.1103 16.6572 17.7799 17.4431 20.4303C18.0925 22.6193 19.1703 24.5613 20.7479 26.2214C22.0293 27.5699 23.5292 28.5905 25.262 29.2691C25.9461 29.5373 25.9505 29.5417 26.2056 28.8445C26.8147 27.1769 27.1214 25.4541 27.1412 23.6779V23.6766Z" fill="white"/>
<path d="M14.31 30.0277C14.2914 29.8905 14.2715 29.7527 14.2535 29.6155C14.1622 28.922 13.853 28.3459 13.262 27.9684C12.6703 27.5903 12.0272 27.2923 11.4442 26.9036C10.9854 26.5976 10.5334 26.2511 10.1702 25.8414C9.71454 25.3267 9.71392 24.5147 10.0827 24.0366C10.1075 24.1173 10.1373 24.1788 10.1442 24.2434C10.2087 24.8474 10.5216 25.2876 11.0444 25.5751C11.8049 25.9929 12.5878 26.3722 13.334 26.8136C13.9654 27.1874 14.4273 27.7281 14.608 28.4651C14.7433 29.0182 14.6527 29.5366 14.395 30.0265C14.3665 30.0265 14.3385 30.0271 14.31 30.0277Z" fill="white"/>
<path d="M9.25327 31.917C9.3408 32.0176 9.37805 32.043 9.39047 32.0772C9.68599 32.9054 10.3894 33.1394 11.1505 33.3083C11.9055 33.4753 12.6735 33.6113 13.4023 33.859C14.5372 34.2451 15.1326 35.1404 15.0842 36.2256C15.0792 36.3349 15.0556 36.4441 14.9656 36.5764C14.9116 36.4789 14.8451 36.3858 14.8048 36.2827C14.5018 35.5005 13.9319 35.0193 13.1329 34.8039C12.5449 34.6456 11.9452 34.527 11.3641 34.3457C10.9146 34.2054 10.4614 34.039 10.0548 33.8056C9.49167 33.4821 9.18621 32.9637 9.20174 32.2914C9.20422 32.1933 9.22781 32.0958 9.25327 31.9176V31.917Z" fill="white"/>
<path d="M14.7654 22.7117C14.7524 22.6745 14.73 22.6379 14.7275 22.6C14.663 21.4732 14.008 20.7784 13.06 20.2793C12.4845 19.9763 11.9127 19.6622 11.3676 19.3083C10.8765 18.9898 10.4705 18.5739 10.309 17.9797C10.1992 17.5743 10.2525 17.1912 10.4779 16.7598C10.527 16.8808 10.5642 16.9379 10.5723 16.9994C10.6524 17.601 10.9808 18.0331 11.5004 18.315C12.1542 18.6695 12.8303 18.9824 13.4772 19.348C14.1551 19.7311 14.7362 20.229 14.9877 21.0038C15.1795 21.5948 15.1261 22.1735 14.8461 22.7217L14.7648 22.7124L14.7654 22.7117Z" fill="white"/>
<path d="M7.61158 28.3013C7.5911 28.1827 7.56688 28.0772 7.55633 27.9698C7.46631 27.0733 6.99696 26.4338 6.22526 25.9992C5.70313 25.705 5.15679 25.4473 4.66137 25.1139C4.22988 24.824 3.80709 24.4918 3.46501 24.1038C3.0118 23.5904 2.99814 22.8019 3.37437 22.3152C3.40914 22.4505 3.44266 22.553 3.46129 22.6573C3.54945 23.1452 3.80647 23.5227 4.23299 23.7648C4.68123 24.02 5.14438 24.2503 5.60442 24.4831C6.3457 24.8581 7.07704 25.2462 7.55819 25.962C8.01451 26.6412 8.06914 27.3638 7.773 28.1188C7.75438 28.1666 7.72644 28.2107 7.6985 28.2535C7.68919 28.2678 7.66498 28.2721 7.61096 28.3001L7.61158 28.3013Z" fill="white"/>
<path d="M16.0629 26.504C16.125 26.5332 16.1399 26.5351 16.1424 26.5419C16.5161 27.5352 17.3903 27.7352 18.2899 27.9282C18.9542 28.071 19.6247 28.2269 20.2573 28.4677C21.386 28.898 21.9832 29.9255 21.8113 31.0039C21.8007 31.0709 21.7746 31.1361 21.7274 31.2994C21.63 31.074 21.5648 30.9306 21.5058 30.7847C21.2382 30.121 20.7645 29.661 20.0884 29.4468C19.2913 29.1947 18.4674 29.0222 17.6808 28.7428C17.2543 28.5913 16.8446 28.3343 16.4925 28.045C16.0238 27.6594 15.9437 27.1112 16.0629 26.5034V26.504Z" fill="white"/>
<path d="M30.1613 8.68104C30.206 8.8108 30.2327 8.85674 30.2364 8.90392C30.2911 9.59802 30.7095 10.0283 31.2869 10.3337C31.8984 10.6578 32.5248 10.9533 33.1302 11.2879C33.6883 11.5965 34.1707 12.0019 34.4836 12.5731C34.8226 13.192 34.8424 13.834 34.586 14.4865C34.5624 14.5473 34.5134 14.5982 34.4414 14.7069C34.4022 14.5647 34.365 14.4815 34.3582 14.3958C34.2756 13.382 33.6728 12.75 32.8284 12.2881C32.2939 11.9957 31.7569 11.707 31.2341 11.3941C30.7598 11.1098 30.3451 10.754 30.0899 10.2455C29.8788 9.82586 29.8658 9.39252 30.008 8.95173C30.0316 8.87909 30.0837 8.81638 30.1619 8.68042L30.1613 8.68104Z" fill="white"/>
<path d="M36.1954 10.0133C36.214 10.0593 36.2438 10.104 36.2494 10.1511C36.3407 10.8986 36.8156 11.34 37.4451 11.6629C38.0889 11.9932 38.7483 12.298 39.3654 12.6724C40.0837 13.1088 40.635 13.7023 40.7617 14.5864C40.8293 15.0564 40.7343 15.5363 40.473 15.9684C40.4425 15.8678 40.4084 15.8001 40.4028 15.7306C40.3184 14.6901 39.7391 14.0041 38.8482 13.5322C38.364 13.2758 37.8828 13.0126 37.4091 12.7375C36.9224 12.4551 36.4735 12.1198 36.1824 11.6231C35.8744 11.0979 35.8595 10.5578 36.1103 10.017C36.1389 10.0158 36.1675 10.0139 36.196 10.0127L36.1954 10.0133Z" fill="white"/>
<path d="M33.9998 21.7937C33.9762 21.6546 33.9477 21.5168 33.9303 21.3771C33.8427 20.6774 33.5075 20.1224 32.9152 19.7486C32.3831 19.4128 31.8231 19.1197 31.2768 18.8062C30.6268 18.4325 29.9998 18.0308 29.6626 17.3187C29.4354 16.8382 29.4615 16.3676 29.7868 15.897C29.8129 15.9982 29.847 16.0975 29.8632 16.2006C29.9346 16.6581 30.1655 17.0219 30.5529 17.2578C30.9844 17.5198 31.4482 17.7291 31.8865 17.9811C32.3962 18.2735 32.9258 18.5448 33.3895 18.9C34.2699 19.5742 34.5517 20.5284 34.2326 21.5187C34.1997 21.6198 34.1469 21.7148 34.1035 21.8129C34.0687 21.8067 34.034 21.8005 33.9998 21.7943V21.7937Z" fill="white"/>
<path d="M28.285 11.9316C28.2422 11.8577 28.1888 11.7875 28.1583 11.7093C27.8187 10.8296 27.1489 10.3528 26.2604 10.1374C25.5577 9.96724 24.8524 9.80645 24.1546 9.61833C23.6473 9.48175 23.1966 9.23031 22.8533 8.81932C22.5075 8.40522 22.4168 7.93525 22.5882 7.40381C22.631 7.48079 22.6819 7.55405 22.7161 7.63476C22.9415 8.16309 23.358 8.46668 23.8982 8.59209C24.4712 8.72495 25.0535 8.81808 25.6303 8.93665C26.502 9.11546 27.3407 9.36565 27.9324 10.0989C28.3663 10.6365 28.483 11.2449 28.285 11.9316V11.9316Z" fill="white"/>
</g>
<defs>
<clipPath id="clip0_12895_4678">
<rect width="42.4497" height="38.364" fill="white" transform="translate(0.873047 0.800049)"/>
</clipPath>
</defs>
</svg>
